<svg width="67" height="67" viewBox="0 0 67 67" fill="none" xmlns="http://www.w3.org/2000/svg">
<path d="M29.7307 0.606351C29.5183 0.632426 28.6819 0.723686 27.8721 0.801909C23.7435 1.20606 20.5575 2.20992 19.1237 3.59186C18.3405 4.33498 17.9024 5.13025 17.5838 6.32967C17.3448 7.24227 17.3183 7.77679 17.3183 11.375V15.3905H33.2486V17.333L21.3407 17.3721C10.2426 17.4113 9.3664 17.4373 8.55661 17.659C5.18469 18.5976 2.74204 20.8531 1.60037 24.0732C0.870226 26.1331 0.233014 29.7053 0.100261 32.404C-0.0723177 36.263 0.936603 41.6473 2.38361 44.5677C3.02082 45.8323 3.28632 46.1973 4.14922 47.0578C4.75988 47.6575 5.49002 48.2311 5.9812 48.4788C7.44148 49.2219 8.0256 49.3132 11.7559 49.3784L15.1677 49.4436L15.2341 45.1022C15.2872 41.1259 15.3137 40.6696 15.5792 39.7961C16.7209 35.9762 19.8008 33.2123 23.6904 32.5213C24.4604 32.391 26.6773 32.3518 33.5141 32.3388C40.8952 32.3388 42.4749 32.2997 43.1918 32.1433C45.9663 31.4914 48.3824 29.1056 49.1126 26.2765C49.4179 25.1162 49.4046 8.65028 49.1126 7.51605C48.7807 6.25144 48.0107 4.98684 46.9885 3.96994C44.4529 1.47984 41.3996 0.684574 33.9124 0.593314C31.8282 0.56724 29.9563 0.580277 29.7307 0.606351ZM25.4959 5.59959C26.4915 6.04285 27.2747 7.24227 27.2747 8.35043C27.2747 9.92792 25.841 11.349 24.2613 11.349C23.624 11.349 22.7346 10.9839 22.2434 10.5276C21.0088 9.38036 20.9823 7.38568 22.177 6.21233C23.0267 5.37795 24.4206 5.11721 25.4959 5.59959Z" fill="url(#paint0_linear)"/>
<path d="M51.3029 21.4918C51.3029 25.2074 51.2764 25.7549 51.0374 26.6806C50.3206 29.4836 48.3691 31.8954 45.7273 33.2383C43.7095 34.2682 44.3998 34.203 33.6468 34.2943C23.0664 34.3855 23.5178 34.3464 21.6991 35.2199C20.5176 35.7935 18.8715 37.4232 18.221 38.6617C17.305 40.4087 17.3183 40.2001 17.3183 49.8215C17.3183 59.2995 17.305 59.1301 18.1148 60.6163C18.6192 61.5419 20.199 63.0803 21.3407 63.7322C24.7524 65.7269 30.5537 66.8872 35.1469 66.5091C41.2137 66.0137 46.2583 63.9799 48.0903 61.2942C49.2054 59.6516 49.232 59.4951 49.2851 55.1798L49.3249 51.373H33.2486V49.4174H45.4353C52.5375 49.4174 57.9804 49.3652 58.4981 49.287C61.5647 48.8437 63.3967 46.9403 65.0163 42.4425C65.7199 40.526 65.9987 39.4831 66.304 37.7361C66.689 35.5849 66.689 32.4299 66.304 29.9007C65.1358 22.0263 62.9719 18.3498 59.0159 17.5285C58.3919 17.3981 57.1441 17.3459 54.728 17.3459H51.3029V21.4918ZM43.444 55.6231C45.0105 56.2619 45.7539 58.0741 45.0503 59.5864C44.506 60.7597 43.6166 61.3333 42.3421 61.3333C40.5367 61.3333 39.2623 59.9905 39.3818 58.2044C39.5145 56.1706 41.5854 54.8539 43.444 55.6231Z" fill="url(#paint1_linear)"/>
<defs>
<linearGradient id="paint0_linear" x1="44.2351" y1="49.4436" x2="2.36792" y2="49.4436" gradientUnits="userSpaceOnUse">
<stop stop-color="#F24F60"/>
<stop offset="1" stop-color="#A5066C"/>
</linearGradient>
<linearGradient id="paint1_linear" x1="61.4893" y1="66.5801" x2="19.606" y2="66.5801" gradientUnits="userSpaceOnUse">
<stop stop-color="#F24F60"/>
<stop offset="1" stop-color="#A5066C"/>
</linearGradient>
</defs>
</svg>
