<svg width="128" height="31" viewBox="0 0 128 31" fill="none" xmlns="http://www.w3.org/2000/svg">
<path d="M117.71 0C115.759 0.975336 112.779 -0.581377 110.259 8.75507C107.738 18.0915 102.8 30.6753 94.4315 30.6753H33.1996C24.8231 30.6753 19.8891 18.0953 17.3723 8.75507C14.8556 -0.585202 11.8569 0.975336 9.91772 0H117.71Z" fill="url(#paint0_linear)"/>
<path d="M110.921 0C109.547 1.91242 108.335 4.54009 107.256 7.91361C103.049 21.1361 98.8417 27.5618 94.4278 27.5618H33.1997C28.7858 27.5618 24.5861 21.1361 20.3673 7.91361C19.2925 4.54009 18.0762 1.91242 16.7031 0H14.7295C16.29 1.76708 17.6593 4.54392 18.8871 8.38406C23.4004 22.536 27.9482 29.1185 33.1997 29.1185H94.4278C99.6755 29.1185 104.227 22.5322 108.74 8.38406C109.964 4.55922 111.334 1.76708 112.894 0L110.921 0Z" fill="white"/>
<path d="M17.3916 8.82009H0C0 0.359535 8.83157 0 9.91782 0C11.857 0.971511 14.8519 -0.585202 17.3724 8.75507L17.3916 8.82009Z" fill="#B4146A"/>
<path d="M110.24 8.82009H127.627C127.627 0.359535 118.796 0 117.71 0C115.759 0.971511 112.776 -0.585202 110.255 8.75507C110.248 8.77626 110.243 8.79801 110.24 8.82009Z" fill="#B4146A"/>
<defs>
<linearGradient id="paint0_linear" x1="106.545" y1="30.6753" x2="14.9223" y2="30.6752" gradientUnits="userSpaceOnUse">
<stop stop-color="#F24F60"/>
<stop offset="1" stop-color="#A5066C"/>
</linearGradient>
</defs>
</svg>
