<svg width="286" height="292" viewBox="0 0 286 292" fill="none" xmlns="http://www.w3.org/2000/svg">
<path d="M54.7019 43.0063C113.833 15.3944 241.285 -18.4727 251.244 12.5198C261.204 43.5124 212.074 56.6503 214.219 77.1568C216.365 97.643 276.184 96.064 279.727 109.728C283.29 123.393 227.033 134.425 227.742 143.879C228.45 153.332 296.104 153.332 284.707 171.734C273.31 190.135 51.3415 232.281 20.0049 215.985C-11.3318 199.69 53.9732 169.102 78.9129 156.49C103.832 143.879 -4.81347 166.531 0.166387 135.012C5.14625 103.493 55.876 91.4283 66.5645 76.7114C77.253 61.9945 19.8024 59.2819 54.7019 43.0063Z" fill="url(#paint0_linear)"/>
<path d="M248.734 57.3791C219.422 60.5371 219.543 81.2865 238.41 80.497C257.277 79.7278 285.415 53.4519 248.734 57.3791Z" fill="url(#paint1_linear)"/>
<path d="M157.052 291.21C226.827 291.21 283.391 274.624 283.391 254.164C283.391 233.705 226.827 217.119 157.052 217.119C87.2772 217.119 30.7134 233.705 30.7134 254.164C30.7134 274.624 87.2772 291.21 157.052 291.21Z" fill="#DBDBDB"/>
<path d="M157.052 289.327C226.827 289.327 283.391 272.741 283.391 252.282C283.391 231.822 226.827 215.236 157.052 215.236C87.2772 215.236 30.7134 231.822 30.7134 252.282C30.7134 272.741 87.2772 289.327 157.052 289.327Z" fill="#EAEAEA"/>
<path d="M157.052 284.023C222.88 284.023 276.245 269.187 276.245 250.885C276.245 232.583 222.88 217.747 157.052 217.747C91.2238 217.747 37.8594 232.583 37.8594 250.885C37.8594 269.187 91.2238 284.023 157.052 284.023Z" fill="url(#paint2_linear)"/>
<path d="M210.211 226.229L216.385 196.106H174.218L180.393 226.229H210.211Z" fill="#DFDFDF"/>
<path d="M195.312 198.9C206.112 198.9 214.867 197.649 214.867 196.107C214.867 194.564 206.112 193.313 195.312 193.313C184.512 193.313 175.757 194.564 175.757 196.107C175.757 197.649 184.512 198.9 195.312 198.9Z" fill="#EAEAEA"/>
<path d="M195.312 192.746C183.672 192.746 174.218 194.244 174.218 196.107C174.218 197.969 183.652 199.467 195.312 199.467C206.952 199.467 216.405 197.969 216.405 196.107C216.405 194.244 206.952 192.746 195.312 192.746ZM195.312 198.9C184.522 198.9 175.757 197.645 175.757 196.107C175.757 194.568 184.502 193.313 195.312 193.313C206.122 193.313 214.867 194.568 214.867 196.107C214.867 197.645 206.102 198.9 195.312 198.9Z" fill="#BCD4DE"/>
<path d="M195.312 229.589C203.541 229.589 210.211 228.084 210.211 226.229C210.211 224.373 203.541 222.868 195.312 222.868C187.083 222.868 180.413 224.373 180.413 226.229C180.413 228.084 187.083 229.589 195.312 229.589Z" fill="#EAEAEA"/>
<path d="M186.841 98.9761C186.841 98.9761 197.706 96.3716 201.434 93.4637C201.47 93.1248 201.505 92.768 201.523 92.4112C201.702 88.5936 199.828 84.7581 197.295 80.9583C193.174 84.3121 185.04 87.8622 183.773 88.0049C189.499 84.6689 192.942 80.3696 194.816 77.4439C192.818 74.7323 190.695 72.0564 188.982 69.3983C185.111 72.1991 182.007 76.9087 182.007 76.9087C182.738 72.217 185.325 68.0425 186.931 65.8126C185.664 63.1545 185.057 60.5321 185.646 57.9633C181.971 59.0693 178.76 60.6035 175.959 62.4231C174.96 65.0277 173.89 69.434 174.443 75.6778C173.961 75.0713 172.035 69.5232 172.231 65.2417C168.181 68.7918 165.273 73.0911 163.311 77.6402C164.72 80.3696 168.146 86.1317 173.212 88.6292C173.212 88.6292 165.826 87.9157 161.581 82.5817C160.528 86.3458 160.047 90.1813 160.047 93.8384C160.047 94.1773 160.064 94.5341 160.082 94.873C162.936 97.1387 169.394 101.491 177.743 102.294C174.764 102.705 166.718 103.168 161.723 100.76C166.326 110.126 178.992 116.031 183.273 107.896C186.592 111.803 194.762 107.807 198.954 100.689C195.476 101.42 190.73 101.652 186.841 98.9761Z" fill="url(#paint3_linear)"/>
<path d="M214.938 125.325C220.272 128.786 232.082 131.301 238.558 130.837C241.537 127.608 243.571 123.987 244.605 120.134C236.631 121.793 222.645 119.492 222.645 119.492C235.293 118.617 242.286 115.852 245.39 114.247C245.39 111.696 244.98 109.091 244.124 106.504C241.198 110.09 235.133 111.624 235.133 111.624C240.074 108.056 241.983 104.613 242.661 102.919C241.359 100.261 239.575 97.6382 237.309 95.105C236.025 96.0505 234.758 96.8176 232.885 97.6739C229.406 101.616 225.428 111.25 225.428 111.25C225.053 106.13 225.91 102.348 226.677 100.082C225.446 100.51 224.037 100.992 222.449 101.527C219.755 104.542 215.063 110.804 213.922 118.814C213.922 118.814 210.942 110.875 216.08 103.614C214.385 104.167 212.548 104.756 210.532 105.398C207.874 106.255 205.555 107.325 203.557 108.556C202.915 111.767 202.879 117.529 208.035 123.719C208.035 123.719 199.026 119.206 198.615 112.605C191.515 120.491 193.959 130.891 206.233 133.335C206.233 133.335 216.669 145.43 231.172 136.796C219.273 134.048 214.938 125.325 214.938 125.325Z" fill="url(#paint4_linear)"/>
<path d="M252.134 160.469C256.843 160.13 259.858 161.61 261.589 162.966C262.052 157.918 261.499 153.137 260.037 149.087C254.542 148.338 246.889 153.297 246.889 153.297C251.152 148.07 255.702 146.197 258.413 145.537C256.594 142.344 254.06 139.882 250.921 138.508C244.641 140.81 239.86 147.464 239.86 147.464C240.948 142.148 243.785 138.812 245.604 137.153C235.204 136.136 228.764 145.109 228.764 145.109C217.489 147.749 215.349 155.206 218.364 160.611C220.29 155.081 228.175 150.175 230.477 150.015C225.071 155.224 223.751 161.807 223.43 165.321C224.411 165.803 225.499 166.177 226.659 166.409C228.907 166.837 231.297 167.462 233.723 168.211C234.134 161.771 237.951 156.134 237.951 156.134C236.97 160.647 238.13 166.427 239.129 170.12C241.091 170.887 242.982 171.743 244.766 172.653C244.712 170.352 245.069 167.569 246.389 164.572C246.14 166.32 246.389 170.833 248.619 174.865C251.884 176.97 254.31 179.289 255.149 181.626C257.468 177.934 259.145 174.08 260.233 170.227C259.84 163.733 253.882 161.557 252.134 160.469Z" fill="url(#paint5_linear)"/>
<path d="M153.089 132.532C151.252 128.179 148.558 126.181 146.56 125.254C150.841 122.542 155.355 120.865 159.636 120.33C162.812 124.879 161.866 133.959 161.866 133.959C164.578 127.787 164.167 122.881 163.525 120.169C167.2 120.33 170.536 121.472 173.194 123.648C173.997 130.284 170.268 137.581 170.268 137.581C174.514 134.191 176.173 130.142 176.833 127.769C182.471 136.564 177.422 146.393 177.422 146.393C180.205 157.632 174.532 162.931 168.36 162.716C172.409 158.489 173.194 149.23 172.284 147.107C170.108 154.278 164.845 158.471 161.866 160.344C160.992 159.684 160.171 158.899 159.44 157.953C158.031 156.152 156.389 154.296 154.623 152.477C160.171 149.176 163.454 143.218 163.454 143.218C159.886 146.144 154.195 147.749 150.449 148.534C148.861 147.143 147.238 145.84 145.632 144.663C147.702 143.664 150.021 142.076 152.09 139.543C150.663 140.56 146.506 142.397 141.904 142.237C138.532 140.292 135.375 139.186 132.913 139.49C135.143 135.743 137.819 132.496 140.744 129.767C146.667 127.162 151.305 131.48 153.089 132.532Z" fill="url(#paint6_linear)"/>
<path d="M198.044 208.938L197.313 203.23C197.063 201.321 196.814 199.43 196.546 197.539C196.011 193.739 195.404 189.975 194.691 186.229C194.334 184.356 193.941 182.482 193.513 180.627C193.085 178.772 192.621 176.917 192.104 175.097C191.087 171.44 189.856 167.818 188.375 164.34C186.895 160.843 185.147 157.489 183.024 154.35C180.919 151.21 178.457 148.32 175.62 145.84C174.211 144.592 172.695 143.468 171.125 142.433C170.732 142.165 170.322 141.933 169.93 141.684C169.537 141.434 169.109 141.202 168.699 140.97C168.288 140.738 167.878 140.524 167.45 140.292C167.04 140.06 166.611 139.864 166.183 139.65C165.755 139.436 165.327 139.258 164.899 139.061C164.471 138.865 164.025 138.687 163.597 138.508C163.382 138.419 163.151 138.33 162.936 138.241L162.276 137.991L161.616 137.741L160.938 137.509C159.137 136.885 157.299 136.368 155.426 135.886C159.262 136.207 163.079 137.117 166.701 138.597C170.322 140.06 173.694 142.165 176.673 144.681C179.67 147.196 182.292 150.157 184.54 153.351C186.788 156.562 188.643 160.005 190.213 163.573C191.783 167.141 193.067 170.815 194.155 174.544C195.244 178.272 196.118 182.054 196.849 185.836C197.598 189.636 198.187 193.454 198.722 197.271C198.99 199.18 199.24 201.089 199.472 202.998C199.704 204.907 199.918 206.815 200.132 208.724L198.044 208.938Z" fill="#2AAEB8"/>
<path d="M200.81 208.992C200.899 206.744 200.988 204.514 201.113 202.266C201.238 200.019 201.38 197.789 201.541 195.541C201.862 191.063 202.308 186.586 202.879 182.126C203.45 177.666 204.199 173.224 205.18 168.8C205.68 166.588 206.251 164.411 206.911 162.235C207.571 160.058 208.338 157.918 209.248 155.83C210.157 153.743 211.263 151.71 212.619 149.801C212.798 149.569 212.976 149.337 213.154 149.105L213.422 148.766L213.707 148.427C213.904 148.213 214.082 147.981 214.296 147.767L214.921 147.143C215.777 146.322 216.705 145.573 217.739 144.966C218.774 144.36 219.916 143.914 221.075 143.628L221.521 143.539L221.735 143.486C221.807 143.468 221.878 143.468 221.967 143.45L222.859 143.343L223.751 143.307H223.983L224.197 143.325L224.643 143.361L225.089 143.396C225.232 143.414 225.374 143.432 225.535 143.45C225.82 143.503 226.124 143.521 226.409 143.593C226.98 143.717 227.569 143.842 228.104 144.021C229.228 144.342 230.28 144.823 231.333 145.305C233.384 146.34 235.293 147.606 237.077 148.998C237.523 149.355 237.969 149.694 238.397 150.068L239.682 151.174L240.93 152.316L241.234 152.601L241.537 152.905L242.144 153.493L242.75 154.082L243.339 154.689C243.731 155.099 244.124 155.491 244.498 155.902C245.265 156.722 246.015 157.561 246.746 158.417C248.227 160.112 249.618 161.86 250.974 163.644L249.832 162.413C249.458 162.003 249.083 161.593 248.691 161.182C247.924 160.379 247.156 159.559 246.371 158.774C245.604 157.971 244.784 157.204 243.999 156.419C243.606 156.027 243.178 155.652 242.786 155.277L242.179 154.707L241.555 154.154L240.93 153.6L240.627 153.315L240.306 153.047L239.022 151.977L237.719 150.942C237.273 150.603 236.827 150.282 236.381 149.961C234.58 148.677 232.706 147.517 230.726 146.607C229.727 146.179 228.728 145.751 227.694 145.484C227.176 145.323 226.659 145.234 226.142 145.127C225.874 145.091 225.624 145.055 225.357 145.02C225.232 145.002 225.089 144.984 224.964 144.984L224.572 144.966L224.179 144.948H223.983L223.787 144.966L223.002 145.002L222.235 145.109C222.163 145.127 222.11 145.127 222.038 145.145L221.842 145.198L221.468 145.287C220.469 145.537 219.505 145.947 218.613 146.483C217.739 147.036 216.919 147.696 216.169 148.445L215.616 149.016C215.438 149.212 215.277 149.426 215.099 149.622L214.849 149.926L214.617 150.247C214.457 150.461 214.296 150.675 214.136 150.889C212.923 152.655 211.906 154.599 211.049 156.615C209.355 160.647 208.195 164.946 207.25 169.264C206.786 171.422 206.375 173.616 206.019 175.811C205.662 178.005 205.359 180.199 205.073 182.411C204.788 184.623 204.538 186.835 204.342 189.047C204.128 191.26 203.931 193.489 203.753 195.702C203.414 200.144 203.164 204.603 202.932 209.063L200.81 208.992Z" fill="#0D769E"/>
<path d="M199.882 209.028C199.311 204.157 198.883 198.77 198.49 193.882C198.098 188.994 197.83 184.088 197.723 179.182C197.616 174.276 197.67 169.353 197.955 164.429C197.991 163.823 198.044 163.198 198.08 162.592C198.134 161.985 198.169 161.361 198.241 160.754L198.419 158.917C198.49 158.31 198.562 157.686 198.633 157.079L198.74 156.152L198.865 155.242C198.954 154.635 199.043 154.011 199.133 153.404C199.347 152.191 199.543 150.96 199.793 149.747L199.971 148.837C200.025 148.534 200.114 148.231 200.167 147.928C200.31 147.321 200.435 146.714 200.595 146.126L201.077 144.324C201.238 143.717 201.434 143.129 201.612 142.54C202.344 140.167 203.218 137.83 204.217 135.565L205.002 133.87C205.269 133.317 205.573 132.764 205.858 132.211C206.001 131.926 206.144 131.658 206.304 131.39L206.768 130.57C207.071 130.017 207.41 129.499 207.731 128.982C207.892 128.714 208.052 128.447 208.231 128.197L208.748 127.43L209.265 126.663C209.444 126.413 209.64 126.163 209.818 125.914C210.193 125.414 210.55 124.915 210.96 124.433L211.549 123.702L211.834 123.345L212.155 122.988C213.012 122.025 213.939 121.186 214.903 120.401C215.866 119.616 216.865 118.867 217.864 118.154C219.88 116.726 221.949 115.424 224.019 114.104C226.088 112.802 228.14 111.499 230.138 110.09C230.387 109.912 230.637 109.733 230.869 109.555C231.119 109.377 231.351 109.198 231.6 109.002C232.082 108.627 232.546 108.253 233.01 107.842C233.92 107.04 234.776 106.165 235.418 105.113C234.883 106.219 234.098 107.2 233.242 108.074C232.385 108.966 231.458 109.769 230.512 110.554C228.603 112.124 226.605 113.533 224.625 114.96C222.627 116.37 220.629 117.779 218.72 119.26C217.757 119.991 216.812 120.758 215.92 121.543C215.028 122.328 214.171 123.166 213.422 124.058L213.137 124.397L212.869 124.754L212.316 125.468C211.941 125.932 211.602 126.431 211.263 126.931C211.085 127.18 210.907 127.412 210.746 127.662L210.264 128.411L209.783 129.16C209.622 129.41 209.479 129.678 209.319 129.928C208.088 131.979 206.982 134.12 206.036 136.332C204.163 140.756 202.843 145.412 201.933 150.14C201.701 151.317 201.505 152.512 201.327 153.708C201.238 154.296 201.166 154.903 201.077 155.509L200.952 156.401L200.845 157.311C200.56 159.719 200.399 162.128 200.239 164.554C199.971 169.388 199.953 174.259 200.06 179.111L200.167 182.75C200.221 183.963 200.274 185.176 200.328 186.389L200.435 188.209C200.471 188.816 200.488 189.422 200.542 190.029C200.613 191.242 200.685 192.455 200.774 193.668C201.113 198.52 201.577 203.979 202.04 208.831L199.882 209.028Z" fill="#36D4BF"/>
<path d="M195.529 209.081C195.725 206.084 196.314 202.32 196.403 199.323L196.439 198.199L196.475 197.075L196.528 194.827C196.546 193.329 196.564 191.83 196.546 190.332C196.546 187.335 196.457 184.338 196.332 181.341C196.225 178.344 196.029 175.365 195.779 172.368C195.547 169.388 195.226 166.391 194.869 163.43C194.512 160.451 194.102 157.49 193.62 154.528C192.675 148.605 191.551 142.718 190.231 136.849C188.928 130.98 187.466 125.164 185.949 119.331L183.666 110.59C182.899 107.682 182.15 104.756 181.454 101.813C180.758 98.8691 180.098 95.9256 179.581 92.9464C179.313 91.4657 179.081 89.9672 178.867 88.4687C178.778 87.7195 178.671 86.9702 178.599 86.2209C178.51 85.4717 178.457 84.7046 178.385 83.9553C178.171 80.9405 178.153 77.8899 178.457 74.8751C178.617 73.3766 178.849 71.878 179.188 70.3974C179.26 70.0227 179.367 69.6659 179.456 69.2913C179.509 69.1129 179.545 68.9167 179.598 68.7383L179.759 68.2031C179.973 67.4717 180.223 66.776 180.473 66.0624C180.044 67.5074 179.706 68.9702 179.438 70.4509C179.188 71.9315 179.028 73.4301 178.938 74.9107C178.849 76.4092 178.849 77.9078 178.903 79.3884L178.956 80.5123L179.028 81.6362C179.045 82.0108 179.081 82.3855 179.117 82.7601C179.152 83.1347 179.188 83.5094 179.224 83.884C179.563 86.8632 180.044 89.8067 180.651 92.7502C181.258 95.6758 181.953 98.6015 182.703 101.509C184.201 107.325 185.824 113.123 187.412 118.921C189 124.736 190.552 130.57 191.926 136.439C193.299 142.308 194.53 148.231 195.511 154.189C196.011 157.168 196.439 160.165 196.831 163.162C197.206 166.159 197.545 169.174 197.795 172.171C198.33 178.201 198.615 184.249 198.633 190.296C198.669 196.344 198.098 202.962 197.634 208.992L195.529 209.081Z" fill="#125C8B"/>
<path d="M205.191 193.131C205.15 193.313 205.089 193.515 205.008 193.677C210.899 194.163 214.867 195.074 214.867 196.107C214.867 197.645 206.122 198.9 195.312 198.9C184.502 198.9 175.757 197.645 175.757 196.107C175.757 194.669 183.267 193.495 192.943 193.333C192.943 193.212 192.964 193.09 193.024 192.969C193.045 192.949 193.045 192.928 193.065 192.908C193.085 192.868 193.085 192.807 193.105 192.766C182.498 192.949 174.218 194.366 174.218 196.107C174.218 197.969 183.652 199.467 195.312 199.467C206.952 199.467 216.405 197.969 216.405 196.107C216.385 194.811 211.851 193.698 205.191 193.131Z" fill="#B7B7B7"/>
<path d="M124.076 210.074L103.914 241.35C103.225 242.403 101.808 242.727 100.756 242.039C99.7029 241.35 99.379 239.933 100.067 238.881C100.088 238.84 100.108 238.82 100.128 238.78L121.91 208.597C122.335 208.01 123.165 207.868 123.752 208.293C124.319 208.718 124.46 209.508 124.076 210.074Z" fill="#6D3285"/>
<path d="M144.157 211.492L141.93 258.658C141.829 260.622 140.169 262.14 138.206 262.059C136.242 261.958 134.724 260.298 134.805 258.335C134.805 258.213 134.825 258.112 134.845 257.99L141.525 211.228C141.627 210.5 142.295 210.014 143.023 210.115C143.691 210.216 144.177 210.824 144.157 211.492Z" fill="#6D3285"/>
<path d="M161.283 207.585L191.709 238.213C192.579 239.103 192.579 240.52 191.689 241.391C190.798 242.261 189.381 242.261 188.51 241.371C188.49 241.35 188.47 241.33 188.45 241.31L159.38 209.386C158.894 208.84 158.935 208.01 159.461 207.524C159.987 207.058 160.777 207.078 161.283 207.585Z" fill="#6D3285"/>
<path d="M114.177 100.639C85.8969 104.769 65.5929 141.085 86.6864 184.973C112.092 237.788 179.178 228.455 190.352 198.151C198.207 176.815 184.624 163.09 166.87 153.332C149.117 143.595 155.716 94.566 114.177 100.639Z" fill="url(#paint7_linear)"/>
<path d="M166.87 153.353C151.424 144.871 154.4 106.651 128.084 100.862C110.391 101.408 87.577 116.145 88.1438 141.976C88.7511 169.325 104.541 191.612 136.04 199.69C165.311 207.2 195.393 184.325 185.474 166.389C180.21 161.308 173.571 157.037 166.87 153.353Z" fill="url(#paint8_linear)"/>
<path d="M217.215 181.228C215.879 179.892 208.106 171.086 206.729 167.867C205.353 164.628 206.972 160.559 210.211 159.163C211.749 158.494 212.579 158.515 213.025 158.616C215.596 159.244 222.094 165.762 226.73 170.398C231.365 175.033 234.969 178.88 236.062 182.867C237.175 186.855 235.556 191.714 232.195 193.637C228.835 195.54 225.9 193.293 225.009 192.402C224.159 191.511 217.215 181.228 217.215 181.228Z" fill="#EAEAEA"/>
<path d="M206.243 174.345C208.187 174.345 214.968 181.612 216.588 183.92C221.729 181.39 225.333 172.665 225.333 172.665C222.6 169.932 220.353 167.361 218.491 164.952C216.628 162.543 213.065 160.316 211.446 160.316C209.826 160.316 199.725 164.527 199.725 164.527L206.243 174.345Z" fill="#FFCC99"/>
<path d="M149.4 131.915C150.271 132.785 157.437 143.15 157.437 143.15C166.04 144.122 173.51 151.349 173.51 151.349C173.51 151.349 167.903 161.895 166.445 161.895C165.008 161.895 145.048 143.15 144.339 142.441C143.631 141.733 142.639 134.445 142.639 134.445L149.4 131.915Z" fill="#FFCC99"/>
<path d="M136.222 110.821C141.121 114 152.457 130.66 152.457 130.66C152.457 136.328 141.141 140.64 141.141 140.64L136.222 110.821Z" fill="url(#paint9_linear)"/>
<path d="M136.647 113.372L140.554 137.057C141.586 138.19 142.497 139.142 143.104 139.769C144.198 139.243 145.635 138.514 147.052 137.603C146.445 136.814 145.109 134.992 143.165 131.996C142.497 128.696 138.975 115.396 136.95 112.421C136.971 112.441 136.849 112.785 136.647 113.372Z" fill="#EAEAEA"/>
<path d="M236.912 255.946C237.418 256.331 237.398 258.314 237.276 258.618C237.155 258.922 232.175 262.727 222.782 262.545C213.389 262.363 195.514 251.573 194.543 249.994C193.571 248.415 194.846 246.047 199.442 245.338C204.037 244.61 213.855 246.189 215.312 246.735C216.77 247.282 230.576 251.513 231.548 252.059C232.539 252.626 236.912 255.946 236.912 255.946Z" fill="#EAEAEA"/>
<path d="M211.709 235.055C212.883 237.605 221.426 243.78 222.337 244.225C223.248 244.67 228.693 251.857 228.511 252.504C228.329 253.132 214.887 256.958 214.887 256.958C210.879 255.966 206.081 252.727 204.381 251.958C202.701 251.189 200.332 251.189 199.158 249.549C197.984 247.909 198.976 240.318 198.976 240.318L211.709 235.055Z" fill="#FFCC99"/>
<path d="M179.785 166.086C179.785 166.086 196.142 172.503 197.903 174.385C199.664 176.268 213.47 234.589 213.47 234.589C213.47 240.338 198.348 242.201 197.377 241.31C192.923 225.925 185.332 204.528 183.713 196.835C182.093 189.143 179.401 183.333 179.401 183.333L157.801 177.665C157.801 177.665 166.04 168.616 166.708 168.211C167.376 167.806 179.785 166.086 179.785 166.086Z" fill="url(#paint10_linear)"/>
<path d="M131.444 187.119C131.444 187.119 148.226 198.475 159.441 201.046C170.635 203.617 194.664 181.997 209.098 177.402C210.454 170.782 207.073 162.159 198.429 161.875C185.879 166.875 161.728 181.309 160.919 181.309C156.728 178.475 151.343 174.284 151.343 174.284L134.886 169.284C134.886 169.284 124.096 175.215 123.549 176.025C123.003 176.875 131.444 187.119 131.444 187.119Z" fill="url(#paint11_linear)"/>
<path d="M99.9256 124.223C103.306 118.514 106.444 114.101 112.881 109.89C117.598 108.129 121.525 108.413 121.525 108.413C121.525 108.413 133.813 109.222 136.242 110.842C138.671 112.461 141.91 131.085 142.578 133.251C143.246 135.417 162.558 157.28 163.085 158.758C163.631 160.235 154.846 173.596 154.846 173.596L140.817 175.762C137.032 177.523 132.173 184.527 132.173 187.645C125.554 183.859 120.392 174.527 118.813 170.904C113.792 159.365 110.978 143.373 110.715 142.968C110.452 142.563 99.9256 124.223 99.9256 124.223Z" fill="url(#paint12_linear)"/>
<path d="M106.1 123.777C108.691 124.243 111.464 126.854 112.476 128.231C113.489 129.607 117.234 148.008 117.234 148.008C116.181 148.818 114.44 149.587 114.44 149.587L109.075 128.494L106.1 123.777Z" fill="#EAEAEA"/>
<path d="M155.919 183.232L135.007 175.054L135.068 173.839L169.967 156.369L183.935 165.62L155.919 183.232Z" fill="#EAEAEA"/>
<path d="M156.465 179.608L142.639 174.284L160.17 165.013L156.465 179.608Z" fill="#B7B7B7"/>
<path d="M143.692 174.224L159.704 165.823L157.052 179.203L143.692 174.224Z" fill="#EAEAEA"/>
<path d="M157.821 176.309L146.384 172.321V172.462L157.821 176.491C157.821 176.41 157.821 176.369 157.821 176.309Z" fill="#B7B7B7"/>
<path d="M157.943 174.912L147.74 171.349V171.491L157.923 175.074C157.923 175.013 157.943 174.973 157.943 174.912Z" fill="#B7B7B7"/>
<path d="M158.145 173.556L149.765 170.641C149.724 170.681 149.684 170.701 149.643 170.742L158.125 173.718C158.125 173.657 158.145 173.596 158.145 173.556Z" fill="#B7B7B7"/>
<path d="M158.429 172.22L150.898 169.588C150.858 169.628 150.817 169.649 150.797 169.689L158.409 172.361C158.409 172.321 158.429 172.26 158.429 172.22Z" fill="#B7B7B7"/>
<path d="M158.773 170.904L152.174 168.596C152.133 168.616 152.093 168.657 152.032 168.677L158.732 171.025C158.753 171.005 158.753 170.944 158.773 170.904Z" fill="#B7B7B7"/>
<path d="M159.137 169.588L153.631 167.665C153.591 167.685 153.55 167.726 153.51 167.766L159.097 169.73C159.117 169.689 159.137 169.649 159.137 169.588Z" fill="#B7B7B7"/>
<path d="M159.522 168.292L155.574 166.916C155.514 166.936 155.433 166.956 155.372 166.976L159.481 168.414C159.481 168.393 159.502 168.333 159.522 168.292Z" fill="#B7B7B7"/>
<path d="M159.866 166.976L156.89 165.944C156.87 165.985 156.85 166.025 156.829 166.066L159.846 167.118C159.846 167.078 159.866 167.037 159.866 166.976Z" fill="#B7B7B7"/>
<path d="M160.21 165.661L159.623 165.458C159.583 165.499 159.542 165.519 159.481 165.559L160.17 165.802C160.19 165.762 160.19 165.701 160.21 165.661Z" fill="#B7B7B7"/>
<path d="M145.129 175.033C145.149 175.054 145.169 175.054 145.19 175.074H145.311L159.562 167.24C159.562 167.219 159.562 167.199 159.562 167.179L145.129 175.033Z" fill="#B7B7B7"/>
<path d="M146.708 175.863C146.768 175.884 146.829 175.904 146.89 175.904L159.339 169.062C159.339 169.041 159.34 169.001 159.36 168.981L146.708 175.863Z" fill="#B7B7B7"/>
<path d="M148.732 176.41C148.793 176.43 148.833 176.45 148.894 176.471L158.975 170.924C158.975 170.883 158.996 170.863 158.996 170.823L148.732 176.41Z" fill="#B7B7B7"/>
<path d="M150.453 176.997C150.514 177.017 150.554 177.037 150.615 177.058L158.591 172.665C158.591 172.624 158.611 172.584 158.611 172.543L150.453 176.997Z" fill="#B7B7B7"/>
<path d="M152.133 177.645C152.173 177.665 152.234 177.685 152.275 177.705L158.125 174.487C158.125 174.446 158.145 174.406 158.145 174.365L152.133 177.645Z" fill="#B7B7B7"/>
<path d="M154.016 178.394C154.076 178.414 154.117 178.434 154.177 178.454L157.72 176.511C157.72 176.47 157.74 176.43 157.74 176.369L154.016 178.394Z" fill="#B7B7B7"/>
<path d="M164.299 143.757L202.883 128.231L194.118 164.122L155.514 183.434L164.299 143.757Z" fill="#D4B5F9"/>
<path d="M164.299 143.757L165.23 144.425L203.834 128.899L202.883 128.231L164.299 143.757Z" fill="white"/>
<path d="M135.068 173.839L155.939 181.815L155.919 183.232L135.007 175.053L135.068 173.839Z" fill="#B7B7B7"/>
<path d="M211.163 256.128C209.341 247.849 216.851 242.504 223.39 243.132C229.928 243.759 237.661 249.529 235.819 256.493C235.819 256.493 232.054 259.043 225.697 259.59C219.341 260.136 215.616 259.408 211.163 256.128Z" fill="#EAEAEA"/>
<path d="M119.055 161.698C117.436 159.714 114.44 147.629 114.44 147.629L102.658 148.479C103.468 156.11 108.63 169.431 111.525 172.366C114.42 175.301 121.687 172.67 121.687 172.67L119.055 161.698Z" fill="#FFCC99"/>
<path d="M97.2939 148.717C99.4195 150.134 111.565 150.944 116.019 148.211C114.298 136.166 112.072 129.081 112.072 129.081C109.541 123.716 102.254 121.388 99.9255 124.222C97.4559 127.218 97.5976 138.696 97.2939 148.717Z" fill="url(#paint13_linear)"/>
<path d="M165.23 144.425L203.834 128.899L195.069 164.81L156.465 184.102L165.23 144.425Z" fill="#EBEBEB"/>
<path d="M145.048 173.414L157.113 177.665L157.194 177.523L145.048 173.292V173.414Z" fill="#B7B7B7"/>
<path d="M109.156 113.898C113.043 117.785 119.845 117.4 122.962 116.186C126.1 114.971 124.582 111.975 123.873 111.267C123.165 110.558 121.91 109.91 121.91 109.91C121.464 107.886 121.545 103.028 121.545 103.028L109.966 101.57C109.602 107.279 110.31 112.097 110.31 112.097C109.865 112.906 109.156 113.898 109.156 113.898Z" fill="#FFCC99"/>
<path d="M121.626 107.319C118.995 106.085 112.699 103.17 109.946 101.914C109.764 105.336 109.946 108.392 110.108 110.234L121.687 108.089C121.667 107.846 121.647 107.583 121.626 107.319Z" fill="#FFB87D"/>
<path d="M214.24 183.191C216.304 179.547 221.284 173.13 225.353 172.118C233.552 178.981 235.131 184.365 234.544 187.179C233.957 189.993 232.398 193.637 227.742 193.637C223.106 193.637 217.215 189.811 214.24 183.191Z" fill="#EAEAEA"/>
<path d="M85.9577 58.0269C85.9577 55.3953 80.5932 54.788 79.7834 53.7758C78.9737 52.7637 85.2492 49.5247 85.9577 58.0269Z" fill="url(#paint14_linear)"/>
<path d="M138.185 94.0802C139.947 93.3312 141.08 92.3191 141.971 91.4486C142.841 90.5781 145.473 85.1124 144.056 79.0395C142.639 72.9665 140.817 72.015 140.817 72.015L138.449 80.0516L138.185 94.0802Z" fill="#DEECF4"/>
<path d="M139.198 74.1405C141.222 75.0515 141.526 76.9746 141.728 79.6062C141.93 82.2378 141.019 93.6753 135.655 96.4082C130.29 99.141 128.064 96.2057 128.064 96.2057L139.198 74.1405Z" fill="url(#paint15_linear)"/>
<path d="M141.02 58.7354C144.157 64.0998 145.574 73.1081 137.74 79.4848C134.744 60.5573 141.02 58.7354 141.02 58.7354Z" fill="#1B1E26"/>
<path d="M139.481 66.2861C141.283 78.8977 136.222 84.1205 136.222 89.5052C136.222 94.8899 132.112 107.846 117.962 107.846C103.812 107.846 96.808 94.6268 95.5934 88.412C94.3788 82.1973 91.1398 66.4075 98.6906 56.0227C106.262 45.6379 136.525 45.6379 139.481 66.2861Z" fill="#FFCC99"/>
<path d="M126.343 89.2015L128.165 93.817L129.015 93.5134C128.064 91.3676 126.343 89.2015 126.343 89.2015Z" fill="#FFB87D"/>
<path d="M108.731 91.5295C109.339 97.4 106.748 102.056 105.331 102.724C109.521 106.024 115.209 107.947 121.647 107.319C128.084 106.692 132.639 101.712 133.772 99.6065C134.926 97.5215 137.558 90.9019 136.242 89.4849C134.866 92.6023 119.319 95.234 108.731 91.5295Z" fill="url(#paint16_linear)"/>
<path d="M109.237 93.0477L105.695 89.2622L106.201 88.5537L110.553 92.5619L109.237 93.0477Z" fill="url(#paint17_linear)"/>
<path d="M105.31 102.724C105.31 102.724 102.517 100.254 102.334 99.2827C102.598 99.0398 102.598 99.0398 102.598 99.0398C102.598 99.0398 105.29 102.036 106.201 102.38C106.667 102.927 105.31 102.724 105.31 102.724Z" fill="url(#paint18_linear)"/>
<path d="M108.954 65.8813C127.456 75.0515 138.55 67.4602 143.752 62.2779C148.955 57.0754 149.906 41.4678 144.339 41.4678C138.793 41.4678 137.72 44.7067 137.72 44.7067C137.72 37.156 132.295 33.3705 126.626 43.3504C122.841 41.8727 121.626 40.3747 113.408 40.3747C105.169 40.3747 89.7836 42.6622 85.4717 55.3547C78.4675 59.95 88.1439 83.9585 88.1439 83.9585C93.2249 89.0396 96.9295 92.562 96.9295 92.562C102.112 87.3797 102.8 68.5939 100.634 66.4076C103.853 69.6263 107.456 70.2538 109.784 70.2336C110.837 70.2336 111.403 69.019 110.735 68.189C109.824 67.0554 108.954 65.8813 108.954 65.8813Z" fill="#1B1E26"/>
<path d="M86.9293 78.9585C86.6459 76.671 88.8929 73.8369 93.2857 73.351C97.6785 72.8652 102.436 75.5373 105.007 80.9625C107.557 86.408 109.055 97.6026 103.063 101.793C97.0712 105.983 91.5245 100.396 91.0994 99.5864C90.6743 98.7767 86.9293 78.9585 86.9293 78.9585Z" fill="url(#paint19_linear)"/>
<path d="M101.464 85.6994C103.691 92.2178 101.909 98.7361 97.4762 100.234C93.0631 101.732 86.1197 98.2098 83.8929 91.6712C81.6661 85.1529 85.0063 78.1082 89.4193 76.6102C93.8526 75.092 99.2373 79.1609 101.464 85.6994Z" fill="#DEECF4"/>
<path d="M93.3088 98.9008C96.7483 97.7294 98.1107 92.593 96.3517 87.4285C94.5927 82.2639 90.3785 79.0269 86.939 80.1984C83.4995 81.3698 82.1372 86.5061 83.8962 91.6707C85.6551 96.8352 89.8693 100.072 93.3088 98.9008Z" fill="#B9C4CB"/>
<path d="M118.448 39.7067C113.711 39.1804 96.7675 40.1723 90.3099 55.294C86.6054 63.9582 86.7471 73.0677 87.4151 78.7358C88.569 78.1285 89.9658 78.0475 91.2411 77.8856C92.395 77.7439 93.7715 77.6224 94.9659 77.9058C94.0954 65.1728 96.7473 43.1683 126.667 43.3302L127.274 42.2978C125.574 40.6176 120.918 39.9698 118.448 39.7067Z" fill="#DEECF4"/>
<path d="M118.975 90.4162C119.858 90.4162 120.574 89.3468 120.574 88.0275C120.574 86.7083 119.858 85.6388 118.975 85.6388C118.091 85.6388 117.375 86.7083 117.375 88.0275C117.375 89.3468 118.091 90.4162 118.975 90.4162Z" fill="#1B1E26"/>
<path d="M132.639 87.0963C132.497 88.2907 131.829 89.2016 131.141 89.1207C130.452 89.0397 129.987 88.0073 130.129 86.8129C130.27 85.6186 130.938 84.7076 131.627 84.7886C132.315 84.8695 132.78 85.902 132.639 87.0963Z" fill="#1B1E26"/>
<path d="M120.776 81.9544C118.185 81.4686 114.298 83.2702 114.298 83.2702C115.311 79.6062 120.007 78.8977 121.687 80.1528C122.436 80.7398 121.707 82.1366 120.776 81.9544Z" fill="#1B1E26"/>
<path d="M130.958 81.2256C133.914 80.5373 135.108 80.679 136.04 81.2054C135.716 79.0191 132.315 78.2296 130.635 79.4847C129.906 80.0515 130.048 81.428 130.958 81.2256Z" fill="#1B1E26"/>
<path d="M140.675 155.215C144.926 154.81 148.226 155.478 149.724 157.381C151.202 159.264 152.558 162.28 153.672 163.292C154.785 164.304 156.809 164.81 157.619 165.62C158.429 166.43 159.238 169.669 158.631 170.175C158.024 170.681 157.052 170.337 156.303 169.73C155.554 169.122 155.392 167.746 155.089 167.503C154.785 167.26 152.659 166.794 152.659 166.794C150.999 167.644 144.603 168.778 144.603 168.778C141.728 163.92 140.068 163.92 139.501 161.936C138.934 159.952 138.712 156.43 140.675 155.215Z" fill="#FFCC99"/>
<path d="M155.19 166.794C155.008 166.369 153.773 165.6 151.971 165.904C152.923 166.187 153.692 166.713 154.238 167.159C154.643 167.28 154.987 167.381 155.089 167.482C155.392 167.725 155.534 169.102 156.303 169.709C156.445 169.831 156.607 169.932 156.749 170.033C155.919 169.163 155.352 167.138 155.19 166.794Z" fill="#FFB87D"/>
<path d="M150.19 165.823C152.983 165.924 153.793 166.065 154.34 166.47C154.886 166.875 156.101 170.195 155.939 171.025C155.757 171.815 154.076 172.442 153.57 171.693C153.064 170.944 151.647 168.414 151.647 168.414C150.129 168.414 148.975 167.503 148.975 167.503L150.19 165.823Z" fill="#FFCC99"/>
<path d="M148.145 166.632C150.939 166.734 151.748 166.875 152.295 167.28C152.842 167.685 154.056 171.815 154.056 171.875C154.056 172.705 152.012 173.232 151.546 172.503C151.04 171.734 149.623 169.223 149.623 169.223C148.105 169.223 146.951 168.313 146.951 168.313L148.145 166.632Z" fill="#FFCC99"/>
<path d="M149.4 169.223C149.299 168.819 149.34 168.576 149.137 168.373C148.935 168.171 147.052 166.976 147.052 166.976C147.052 166.976 148.287 169.304 148.368 169.223C148.429 169.143 149.4 169.223 149.4 169.223Z" fill="#FFB87D"/>
<path d="M146.85 166.531C147.012 166.896 148.611 168.313 149.076 168.819C149.542 169.325 149.643 171.794 149.744 172.26C149.846 172.726 148.692 173.373 147.821 172.705C146.951 172.037 147.052 170.236 147.052 170.236C146.04 169.972 144.522 168.859 144.522 168.636L144.562 167.564L146.85 166.531Z" fill="#FFCC99"/>
<path d="M140.675 155.215C132.618 156.187 121.889 159.223 118.752 160.944C115.614 162.665 113.995 170.256 116.221 172.989C118.448 175.722 141.627 163.98 141.627 163.98L140.675 155.215Z" fill="#FFCC99"/>
<path d="M139.461 159.304C138.854 160.58 139.258 163.454 139.542 165.013C140.23 164.669 140.777 164.406 141.141 164.223C140.129 163.454 139.461 160.256 139.461 159.304Z" fill="#FFB87D"/>
<path d="M154.056 171.895C154.056 170.559 152.801 167.624 152.477 167.28C152.133 166.936 150.615 166.794 150.615 166.794C151.789 167.037 151.991 167.341 152.275 167.624C152.558 167.928 154.056 171.895 154.056 171.895Z" fill="#FFB87D"/>
<path d="M156.465 184.102L155.514 183.434L164.299 143.757L165.23 144.425L156.465 184.102Z" fill="#B7B7B7"/>
<path d="M98.5892 248.719C98.3261 247.869 97.4151 247.383 96.5649 247.646L96.4435 247.687C96.241 247.747 96.1196 247.768 95.9576 247.727C95.8159 247.687 95.5932 247.585 95.3706 247.383C95.1479 247.181 94.905 246.877 94.6823 246.553C94.4596 246.209 94.2572 245.865 94.0547 245.46C93.6701 244.691 93.326 243.84 93.0223 242.95C92.7187 242.079 92.4555 241.168 92.2126 240.257C92.1316 239.974 92.0709 239.69 91.9899 239.407C91.9899 239.407 91.9899 239.407 92.0102 239.387C92.8199 238.233 92.7794 236.937 91.8685 235.885C91.6458 235.642 91.4029 235.419 91.0992 235.196C91.0587 235.014 91.0385 234.832 90.998 234.65C90.6539 232.767 90.3705 230.864 90.1073 228.962C89.6012 225.136 89.2166 221.289 88.9129 217.443C88.6093 213.597 88.3866 209.71 88.2449 205.864V205.844C88.2247 205.297 87.7793 204.872 87.2327 204.872C86.6862 204.872 86.2408 205.338 86.2408 205.884C86.2813 209.791 86.4028 213.678 86.6052 217.585C86.8076 221.471 87.091 225.378 87.5162 229.265C87.6781 230.783 87.8603 232.302 88.083 233.84C85.674 233.132 82.9007 232.848 81.4634 232.767C81.2407 229.71 81.0383 226.654 80.8561 223.597C80.6132 219.569 80.4107 215.54 80.2286 211.512C80.2083 210.904 79.682 210.419 79.0747 210.419C78.4471 210.419 77.941 210.945 77.941 211.572C77.9815 215.621 78.0423 219.65 78.1232 223.698C78.184 226.694 78.2649 229.67 78.3662 232.666C75.6333 232.686 73.1231 232.97 71.0786 233.496C71.0786 233.415 71.0988 233.334 71.0988 233.273C71.4429 229.508 71.6251 225.763 71.6859 222.018C71.7264 220.135 71.7263 218.273 71.7061 216.39C71.6859 214.508 71.6454 212.645 71.5644 210.763C71.5239 209.872 70.7749 209.184 69.8842 209.204C68.9935 209.244 68.3052 209.994 68.3255 210.884V210.904C68.4064 212.726 68.4469 214.569 68.4672 216.411C68.4874 218.253 68.4874 220.095 68.4469 221.937C68.3862 225.621 68.204 229.306 67.8599 232.949C67.7991 233.597 67.7384 234.225 67.6574 234.873C65.3295 236.391 65.3699 238.294 65.6331 239.346C65.7748 239.933 66.1392 240.46 66.7262 240.925C66.5441 241.857 66.3214 242.767 66.0785 243.658C65.8355 244.508 65.5724 245.338 65.2485 246.148C64.9246 246.938 64.5805 247.707 64.1351 248.355C63.71 249.002 63.2242 249.569 62.7181 249.873C62.6573 249.913 62.5966 249.954 62.5359 249.994L62.3537 250.075C62.293 250.116 62.2322 250.116 62.1715 250.136C62.1108 250.156 62.05 250.177 61.9893 250.197C61.7464 250.257 61.463 250.237 61.1796 250.217L61.0379 250.197C60.1674 250.116 59.3982 250.743 59.2969 251.614C59.1957 252.504 59.8233 253.314 60.714 253.415C61.3415 253.496 62.0096 253.496 62.6776 253.355C62.8395 253.334 63.0015 253.274 63.1634 253.233C63.3254 253.193 63.4873 253.132 63.629 253.071C63.7707 253.011 63.9327 252.93 64.0744 252.869L64.4792 252.626C64.6209 252.545 64.7424 252.444 64.8639 252.363C64.9853 252.262 65.127 252.181 65.2282 252.079C65.4509 251.877 65.6736 251.675 65.8558 251.452C66.2607 251.027 66.5643 250.581 66.868 250.136C67.455 249.225 67.8801 248.294 68.2647 247.363C68.6291 246.431 68.9328 245.5 69.1959 244.549C69.3984 243.84 69.5806 243.112 69.7425 242.403C70.451 242.626 71.2405 242.808 72.111 242.97C74.0746 243.334 76.443 243.557 78.852 243.557C78.8722 243.557 78.8925 243.557 78.9127 243.557C79.014 245.055 79.1557 246.553 79.2974 248.051C79.52 250.096 79.763 252.14 80.1476 254.205C80.35 255.237 80.5727 256.29 80.8966 257.363C80.9776 257.626 81.0788 257.909 81.1597 258.173C81.261 258.436 81.3824 258.719 81.4836 259.003C81.7468 259.569 82.0302 260.156 82.5363 260.764C82.5565 260.784 82.5768 260.825 82.597 260.845C83.346 261.695 84.6416 261.756 85.4716 261.007C86.3218 260.258 86.3825 258.962 85.6335 258.132C85.4918 257.97 85.2894 257.667 85.1274 257.322C85.0465 257.14 84.9655 256.958 84.8845 256.756C84.8035 256.553 84.7226 256.351 84.6618 256.128C84.3582 255.278 84.1153 254.367 83.9128 253.415C83.4877 251.533 83.1638 249.569 82.8804 247.606C82.678 246.209 82.5161 244.792 82.3541 243.375C85.0262 243.112 87.5364 242.504 89.4595 241.472C89.6619 242.261 89.8644 243.051 90.1275 243.84C90.4312 244.812 90.7753 245.784 91.2409 246.755C91.7065 247.727 92.2531 248.699 93.1843 249.63C93.6701 250.075 94.2774 250.521 95.0669 250.764C95.2693 250.824 95.4515 250.885 95.6742 250.885C95.8766 250.905 96.0993 250.946 96.3018 250.926C96.5042 250.905 96.7066 250.905 96.9091 250.865C97.0912 250.824 97.2937 250.784 97.4759 250.723C97.4961 250.723 97.5164 250.703 97.5366 250.703C98.3666 250.48 98.8524 249.569 98.5892 248.719ZM73.7304 240.804C72.2527 240.581 71.0988 240.318 70.2283 240.035C70.2891 239.67 70.3498 239.306 70.4105 238.962C70.5522 238.031 70.6939 237.099 70.7952 236.168C72.7385 235.52 75.4511 235.176 78.4471 235.156C78.4674 235.399 78.4674 235.662 78.4876 235.905C78.5686 237.666 78.6496 239.407 78.771 241.168C77.0503 241.148 75.3297 241.027 73.7304 240.804ZM81.6658 235.682C81.6456 235.541 81.6456 235.379 81.6253 235.237C84.7023 235.46 87.0303 235.986 88.4878 236.573C88.6295 237.383 88.7712 238.192 88.9332 239.002C87.4149 240.035 84.925 240.682 82.1314 240.966C81.9695 239.225 81.8075 237.443 81.6658 235.682Z" fill="url(#paint20_linear)"/>
<path d="M78.3196 220.461C96.3328 219.876 110.777 214.51 110.581 208.476C110.385 202.442 95.6235 198.024 77.6103 198.609C59.597 199.193 45.1531 204.559 45.349 210.593C45.5449 216.628 60.3063 221.045 78.3196 220.461Z" fill="#B7B7B7"/>
<path d="M78.1779 216.412C96.1912 215.827 110.635 210.462 110.439 204.428C110.243 198.393 95.4819 193.976 77.4686 194.56C59.4553 195.145 45.0114 200.511 45.2073 206.545C45.4032 212.579 60.1646 216.997 78.1779 216.412Z" fill="#EAEAEA"/>
<path d="M93.8928 201.289C93.9333 202.686 90.5931 203.92 86.423 204.062C82.2529 204.204 78.8317 203.171 78.7912 201.775C78.7508 200.378 82.0909 199.143 86.261 199.001C90.4312 198.86 93.8523 199.892 93.8928 201.289Z" fill="url(#paint21_linear)"/>
<path d="M78.7913 201.775L76.3621 183.029L94.8645 182.422L93.8929 201.289L78.7913 201.775Z" fill="url(#paint22_linear)"/>
<path d="M96.2006 181.349C96.2613 183.293 91.6053 185.033 85.7955 185.216C79.9857 185.398 75.2285 183.981 75.1475 182.037C75.1272 181.511 75.0058 179.973 75.5928 179.507C77.2123 178.232 81.3015 178.313 85.5526 178.171C89.6417 178.029 93.9333 177.847 95.7147 178.94C96.484 179.386 96.1803 180.762 96.2006 181.349Z" fill="url(#paint23_linear)"/>
<path d="M96.2006 179.871C96.2613 181.815 91.6054 183.556 85.7955 183.738C79.9857 183.92 75.2285 182.503 75.1475 180.56C75.0868 178.616 79.7428 175.964 85.5526 175.782C91.3827 175.58 96.1399 177.928 96.2006 179.871Z" fill="url(#paint24_linear)"/>
<path d="M93.8929 178.252C93.9334 179.77 90.3098 181.127 85.7753 181.268C81.2408 181.41 77.5161 180.297 77.4756 178.778C77.4351 177.26 81.0587 175.904 85.5932 175.762C90.1277 175.62 93.8322 176.734 93.8929 178.252Z" fill="url(#paint25_linear)"/>
<path d="M59.2362 201.734L52.4547 205.398L52.5559 206.309L69.2971 210.904L74.9653 206.431L75.6535 205.702L59.2362 201.734Z" fill="#6D3285"/>
<path d="M52.4547 205.398L69.1757 209.771L75.694 205.661V206.734L69.2972 210.904L52.5559 206.309L52.4547 205.398Z" fill="#6D3285"/>
<path d="M53.224 205.378L59.2565 202.058L73.7305 205.378L67.455 209.062L53.224 205.378Z" fill="url(#paint26_linear)"/>
<path d="M72.0705 207.443C72.4618 207.443 72.779 207.316 72.779 207.159C72.779 207.003 72.4618 206.876 72.0705 206.876C71.6792 206.876 71.362 207.003 71.362 207.159C71.362 207.316 71.6792 207.443 72.0705 207.443Z" fill="#232669"/>
<defs>
<linearGradient id="paint0_linear" x1="143.003" y1="253.395" x2="143.003" y2="-41.206" gradientUnits="userSpaceOnUse">
<stop stop-color="white"/>
<stop offset="1" stop-color="#EAEAEA"/>
</linearGradient>
<linearGradient id="paint1_linear" x1="245.955" y1="84.1374" x2="245.955" y2="52.5406" gradientUnits="userSpaceOnUse">
<stop stop-color="white"/>
<stop offset="1" stop-color="#EAEAEA"/>
</linearGradient>
<linearGradient id="paint2_linear" x1="157.055" y1="294.211" x2="157.055" y2="205.25" gradientUnits="userSpaceOnUse">
<stop stop-color="white"/>
<stop offset="1" stop-color="#EAEAEA"/>
</linearGradient>
<linearGradient id="paint3_linear" x1="160.047" y1="111.743" x2="201.535" y2="111.743" gradientUnits="userSpaceOnUse">
<stop stop-color="#19316C"/>
<stop offset="1" stop-color="#01B3C9"/>
</linearGradient>
<linearGradient id="paint4_linear" x1="194.669" y1="139.904" x2="245.39" y2="139.904" gradientUnits="userSpaceOnUse">
<stop stop-color="#39DEC0"/>
<stop offset="1" stop-color="#1D87B1"/>
</linearGradient>
<linearGradient id="paint5_linear" x1="217.127" y1="181.626" x2="261.749" y2="181.626" gradientUnits="userSpaceOnUse">
<stop stop-color="#19316C"/>
<stop offset="1" stop-color="#01B3C9"/>
</linearGradient>
<linearGradient id="paint6_linear" x1="132.913" y1="162.723" x2="179.501" y2="162.723" gradientUnits="userSpaceOnUse">
<stop stop-color="#39DEC0"/>
<stop offset="1" stop-color="#1D87B1"/>
</linearGradient>
<linearGradient id="paint7_linear" x1="180.755" y1="222.748" x2="83.288" y2="222.748" gradientUnits="userSpaceOnUse">
<stop stop-color="#F24F60"/>
<stop offset="1" stop-color="#A5066C"/>
</linearGradient>
<linearGradient id="paint8_linear" x1="171.44" y1="189.802" x2="94.8049" y2="118.839" gradientUnits="userSpaceOnUse">
<stop stop-color="#F84E60"/>
<stop offset="1" stop-color="#BA2484"/>
</linearGradient>
<linearGradient id="paint9_linear" x1="144.339" y1="145.223" x2="144.339" y2="105.199" gradientUnits="userSpaceOnUse">
<stop stop-color="white"/>
<stop offset="1" stop-color="#EAEAEA"/>
</linearGradient>
<linearGradient id="paint10_linear" x1="157.801" y1="241.521" x2="213.47" y2="241.521" gradientUnits="userSpaceOnUse">
<stop stop-color="#00205B"/>
<stop offset="1" stop-color="#84358E"/>
</linearGradient>
<linearGradient id="paint11_linear" x1="123.524" y1="201.257" x2="209.387" y2="201.257" gradientUnits="userSpaceOnUse">
<stop stop-color="#00205B"/>
<stop offset="1" stop-color="#84358E"/>
</linearGradient>
<linearGradient id="paint12_linear" x1="131.518" y1="199.827" x2="131.518" y2="93.4525" gradientUnits="userSpaceOnUse">
<stop stop-color="white"/>
<stop offset="1" stop-color="#EAEAEA"/>
</linearGradient>
<linearGradient id="paint13_linear" x1="106.657" y1="154.175" x2="106.657" y2="117.913" gradientUnits="userSpaceOnUse">
<stop stop-color="white"/>
<stop offset="1" stop-color="#EAEAEA"/>
</linearGradient>
<linearGradient id="paint14_linear" x1="78.7516" y1="56.4952" x2="79.7644" y2="56.2287" gradientUnits="userSpaceOnUse">
<stop stop-color="#67238F"/>
<stop offset="1" stop-color="#301C7B"/>
</linearGradient>
<linearGradient id="paint15_linear" x1="128.064" y1="97.5724" x2="141.753" y2="97.5724" gradientUnits="userSpaceOnUse">
<stop stop-color="#00205B"/>
<stop offset="1" stop-color="#84358E"/>
</linearGradient>
<linearGradient id="paint16_linear" x1="109.785" y1="107.437" x2="135.641" y2="107.437" gradientUnits="userSpaceOnUse">
<stop stop-color="#E74E4B"/>
<stop offset="1" stop-color="#FB8133"/>
</linearGradient>
<linearGradient id="paint17_linear" x1="106.387" y1="93.0477" x2="110.404" y2="93.0477" gradientUnits="userSpaceOnUse">
<stop stop-color="#E74E4B"/>
<stop offset="1" stop-color="#FB8133"/>
</linearGradient>
<linearGradient id="paint18_linear" x1="102.899" y1="102.761" x2="106.176" y2="102.761" gradientUnits="userSpaceOnUse">
<stop stop-color="#E74E4B"/>
<stop offset="1" stop-color="#FB8133"/>
</linearGradient>
<linearGradient id="paint19_linear" x1="86.9054" y1="103.335" x2="107.241" y2="103.335" gradientUnits="userSpaceOnUse">
<stop stop-color="#00205B"/>
<stop offset="1" stop-color="#84358E"/>
</linearGradient>
<linearGradient id="paint20_linear" x1="59.2862" y1="261.528" x2="98.661" y2="261.528" gradientUnits="userSpaceOnUse">
<stop stop-color="#00205B"/>
<stop offset="1" stop-color="#84358E"/>
</linearGradient>
<linearGradient id="paint21_linear" x1="78.7909" y1="204.075" x2="93.8932" y2="204.075" gradientUnits="userSpaceOnUse">
<stop stop-color="#8F3CE5"/>
<stop offset="1" stop-color="#3A30D6"/>
</linearGradient>
<linearGradient id="paint22_linear" x1="76.3621" y1="201.775" x2="94.8645" y2="201.775" gradientUnits="userSpaceOnUse">
<stop stop-color="#8F3CE5"/>
<stop offset="1" stop-color="#3A30D6"/>
</linearGradient>
<linearGradient id="paint23_linear" x1="69.2402" y1="185.231" x2="85.6833" y2="185.231" gradientUnits="userSpaceOnUse">
<stop stop-color="#8008DB"/>
<stop offset="1" stop-color="#430CD7"/>
</linearGradient>
<linearGradient id="paint24_linear" x1="75.147" y1="183.754" x2="96.2012" y2="183.754" gradientUnits="userSpaceOnUse">
<stop stop-color="#8F3CE5"/>
<stop offset="1" stop-color="#3A30D6"/>
</linearGradient>
<linearGradient id="paint25_linear" x1="77.4753" y1="181.28" x2="93.8933" y2="181.28" gradientUnits="userSpaceOnUse">
<stop stop-color="#8F3CE5"/>
<stop offset="1" stop-color="#3A30D6"/>
</linearGradient>
<linearGradient id="paint26_linear" x1="53.224" y1="209.062" x2="73.7305" y2="209.062" gradientUnits="userSpaceOnUse">
<stop stop-color="#E74B50"/>
<stop offset="1" stop-color="#D12EBD"/>
</linearGradient>
</defs>
</svg>
