<svg width="31" height="24" viewBox="0 0 31 24" fill="none" xmlns="http://www.w3.org/2000/svg">
<path d="M29.3393 4.85114L24.9107 7.36364V2.18182C24.9107 0.978409 23.9177 0 22.6964 0H2.21429C0.992969 0 0 0.978409 0 2.18182V21.8182C0 23.0216 0.992969 24 2.21429 24H22.6964C23.9177 24 24.9107 23.0216 24.9107 21.8182V16.6364L29.3393 19.1489C30.0762 19.5682 31 19.0432 31 18.208V5.79545C31 4.95682 30.0762 4.43182 29.3393 4.85114ZM9.13393 6.54545C9.13393 6.69545 9.00937 6.81818 8.85714 6.81818H4.98214C4.82991 6.81818 4.70536 6.69545 4.70536 6.54545V4.90909C4.70536 4.75909 4.82991 4.63636 4.98214 4.63636H8.85714C9.00937 4.63636 9.13393 4.75909 9.13393 4.90909V6.54545ZM28.5089 15.8523L24.9107 13.8136V10.1898L28.5089 8.14773V15.8523Z" fill="white"/>
</svg>
