<svg width="69" height="80" viewBox="0 0 69 80" fill="none" xmlns="http://www.w3.org/2000/svg">
<path d="M63.1642 26.0972C65.8797 26.0972 68.0853 28.2483 68.0853 30.8966V51.056C68.0853 53.7043 65.8797 55.8554 63.1642 55.8554C60.4487 55.8554 58.243 53.7043 58.243 51.056V30.8966C58.243 28.2483 60.4487 26.0972 63.1642 26.0972ZM0.341904 30.8966C0.341904 28.2483 2.54756 26.0972 5.26306 26.0972C7.97856 26.0972 10.1842 28.2483 10.1842 30.8966V51.056C10.1842 53.7043 7.97856 55.8554 5.26306 55.8554C2.54756 55.8554 0.341904 53.7043 0.341904 51.056V30.8966ZM56.2369 26.9403H56.4807V58.5793C56.4807 61.2168 54.264 63.3787 51.5596 63.3787H47.4143V74.4042C47.4143 77.0525 45.2086 79.2036 42.4931 79.2036C39.7776 79.2036 37.572 77.0525 37.572 74.4042V63.3787H30.8553V74.4042C30.8553 77.0525 28.6496 79.2036 25.9341 79.2036C23.2186 79.2036 21.013 77.0525 21.013 74.4042V63.3787H16.8677C14.1633 63.3787 11.9465 61.2168 11.9465 58.5793V26.9403H56.2369ZM11.9909 25.2541V22.9409C12.0574 22.2815 12.1571 21.6329 12.2901 21.006C13.5093 15.3743 17.5327 10.6074 23.0524 7.84021L19.6608 1.73292C19.4502 1.35459 19.5942 0.878982 19.9822 0.673604C20.3701 0.468226 20.8578 0.608749 21.0684 0.987076L24.5043 7.18083C27.4304 5.95938 30.7112 5.26758 34.1693 5.26758C37.6606 5.26758 40.9636 5.97019 43.9007 7.20245L47.3589 0.987076C47.5694 0.608749 48.0571 0.468226 48.4451 0.673604C48.833 0.878982 48.9771 1.35459 48.7665 1.73292L45.3527 7.87263C50.6175 10.5317 54.5078 15.0068 55.8933 20.3142C56.248 21.687 56.4364 23.1246 56.4364 24.5947C56.4364 24.8109 56.4253 25.0379 56.4253 25.2541H11.9909ZM24.0831 13.5043C22.9304 13.5043 21.9883 14.4123 21.9883 15.5473C21.9883 16.6714 22.9194 17.5902 24.0831 17.5902C25.2358 17.5902 26.178 16.6823 26.178 15.5473C26.178 14.4123 25.2358 13.5043 24.0831 13.5043ZM44.3441 13.5043C43.1914 13.5043 42.2493 14.4123 42.2493 15.5473C42.2493 16.6714 43.1803 17.5902 44.3441 17.5902C45.4968 17.5902 46.4389 16.6823 46.4389 15.5473C46.4389 14.4123 45.4968 13.5043 44.3441 13.5043Z" fill="url(#paint0_linear)"/>
<defs>
<linearGradient id="paint0_linear" x1="68.0853" y1="79.2034" x2="0.341911" y2="79.2034" gradientUnits="userSpaceOnUse">
<stop stop-color="#19316C"/>
<stop offset="1" stop-color="#01B3C9"/>
</linearGradient>
</defs>
</svg>
