<svg width="62" height="69" viewBox="0 0 62 69" fill="none" xmlns="http://www.w3.org/2000/svg">
<path d="M61.1457 10.256V16.304C61.1457 21.6338 47.6291 25.9808 30.9691 25.9808C14.309 25.9808 0.792465 21.6338 0.792465 16.304V10.256C0.792465 4.92611 14.309 0.579102 30.9691 0.579102C47.6291 0.579102 61.1457 4.92611 61.1457 10.256ZM61.1457 23.864V37.4721C61.1457 42.802 47.6291 47.149 30.9691 47.149C14.309 47.149 0.792465 42.802 0.792465 37.4721V23.864C7.27572 28.2489 19.142 30.2901 30.9691 30.2901C42.7962 30.2901 54.6623 28.2489 61.1457 23.864ZM61.1457 45.0322V58.6402C61.1457 63.9701 47.6291 68.3171 30.9691 68.3171C14.309 68.3171 0.792465 63.9701 0.792465 58.6402V45.0322C7.27572 49.417 19.142 51.4583 30.9691 51.4583C42.7962 51.4583 54.6623 49.417 61.1457 45.0322Z" fill="url(#paint0_linear)"/>
<defs>
<linearGradient id="paint0_linear" x1="0.792465" y1="68.317" x2="61.1457" y2="68.317" gradientUnits="userSpaceOnUse">
<stop stop-color="#00205B"/>
<stop offset="1" stop-color="#84358E"/>
</linearGradient>
</defs>
</svg>
