<svg width="34" height="34" viewBox="0 0 34 34" fill="none" xmlns="http://www.w3.org/2000/svg">
<path d="M27.2592 32.1343C27.2774 28.6028 23.6523 26.5128 20.1362 24.9901C16.6332 23.474 15.5145 22.1967 15.5145 19.4598C15.5145 17.8193 16.5837 18.3534 17.0523 15.3444C17.2503 14.0971 18.1941 15.3245 18.3756 12.4765C18.3756 11.3419 17.8592 11.0599 17.8592 11.0599C17.8592 11.0599 18.1215 9.37956 18.2238 8.08573C18.3294 6.73053 17.5671 3.83933 14.4272 2.9519C13.8794 2.38626 13.5081 1.48888 15.1977 0.589832C11.5017 0.417322 10.6421 2.36138 8.67365 3.79122C6.9989 5.04524 6.5468 7.03077 6.62765 8.08739C6.7349 9.38122 6.9956 11.0615 6.9956 11.0615C6.9956 11.0615 6.4775 11.3435 6.4775 12.4781C6.659 15.3278 7.6061 14.0987 7.80245 15.3461C8.27105 18.3551 9.3419 17.821 9.3419 19.4615C9.3419 22.1984 8.9921 23.1273 5.4875 24.6434C1.97135 26.1645 0.877396 28.6028 0.895546 32.1343C0.900496 33.191 0.877396 33.5791 0.877396 33.5791H27.2774C27.2774 33.5791 27.2543 33.191 27.2592 32.1343ZM28.9274 16.9916V12.0153H25.6274V16.9916H20.6774V20.3091H25.6274V25.2853H28.9274V20.3091H33.8774V16.9916H28.9274Z" fill="white"/>
</svg>
