<svg width="50" height="51" viewBox="0 0 50 51" fill="none" xmlns="http://www.w3.org/2000/svg">
<rect width="50" height="51" fill="#E5E5E5"/>
<g clip-path="url(#clip0)">
<rect x="-1021" y="-2663" width="1366" height="6408" fill="white"/>
<rect x="-37.5" y="-25.9209" width="255" height="210" rx="10.5" stroke="#F3F3F3"/>
<g clip-path="url(#clip1)">
<path d="M7.29901 32.6179C7.01596 33.1825 7.1262 33.8649 7.57214 34.3112L7.93034 34.6694C8.96527 33.443 10.1715 32.1121 11.6344 30.6495C11.7378 30.5461 11.8442 30.4962 11.948 30.4008L9.64352 28.0959C8.3038 30.519 7.52255 32.1746 7.29901 32.6179Z" fill="url(#paint0_linear)"/>
<path d="M19.9207 38.9359C18.4543 40.4023 17.1268 41.6107 15.9072 42.6464L16.3925 43.1317C16.8426 43.5818 17.5315 43.6901 18.098 43.3987C18.8568 43.0077 20.05 42.4462 22.5829 41.0355L20.1698 38.6223C20.0744 38.7265 20.0244 38.8325 19.9207 38.9359Z" fill="url(#paint1_linear)"/>
<path d="M19.1399 31.4322C18.0813 30.3737 15.1043 31.3228 13.7059 32.7208C9.02753 37.3992 6.91457 40.7161 5.96586 42.6745C5.69387 43.2357 5.80717 43.9074 6.24815 44.3484C6.68989 44.7906 7.3628 44.9027 7.92432 44.6307C9.83892 43.7011 13.1154 41.598 17.8494 36.8644C19.3871 35.3259 20.1458 32.4386 19.1411 31.4334L19.1399 31.4322Z" fill="url(#paint2_linear)"/>
<path d="M4.57234 20.0823L0.429198 24.2254C-0.0392469 24.6939 -0.135377 25.419 0.196501 25.9935C0.520369 26.5604 1.19862 26.8492 1.84407 26.6764C4.0833 26.0759 6.05359 25.8222 7.38034 26.1625C9.26785 22.8067 11.2961 19.7176 13.4442 16.9115C12.2017 16.115 8.09597 16.5586 4.57234 20.0823Z" fill="url(#paint3_linear)"/>
<path d="M24.7944 50.422C25.3586 50.7073 26.0418 50.5971 26.4885 50.15L30.632 46.0068C33.8398 42.7983 34.4044 38.6586 33.6765 37.3459C30.547 39.7046 27.3766 41.6962 24.4187 43.3636C24.6227 44.516 24.4869 45.6341 24.0044 48.8995C23.9102 49.5316 24.2367 50.1431 24.7944 50.422Z" fill="url(#paint4_linear)"/>
<path d="M29.0821 15.2732C27.3689 16.9868 27.3689 19.7742 29.0821 21.4877C30.7957 23.2013 33.5835 23.2013 35.297 21.4877C37.0106 19.7742 37.0106 16.9868 35.297 15.2732C33.5835 13.5596 30.7957 13.5596 29.0821 15.2732Z" fill="url(#paint5_linear)"/>
<path d="M49.9138 2.0082C49.8612 1.28379 49.2844 0.711207 48.5623 0.657039C44.9646 0.386195 41.3811 0.8287 37.8685 1.90292C38.1329 4.3161 39.3811 6.92764 41.5119 9.05853C43.6684 11.2146 46.3509 12.4624 48.8072 12.6958C49.7532 9.38049 50.2018 5.82977 49.9138 2.0082Z" fill="url(#paint6_linear)"/>
<path d="M39.4406 11.1301C37.003 8.69247 35.5145 5.76889 35.0369 2.92236C26.2406 6.52992 17.82 14.408 11.166 25.4752L14.4718 28.7811C16.7305 27.864 19.4725 27.6218 21.2116 29.3605C22.953 31.1023 22.7062 33.8432 21.7896 36.0988L25.2041 39.5133C33.7193 34.3814 43.6329 26.2962 47.8485 15.5391C44.9326 15.0985 41.9178 13.6073 39.4406 11.1301ZM37.3684 23.5595C34.5131 26.4148 29.8664 26.4148 27.0107 23.5595C24.1551 20.7038 24.1551 16.0567 27.0107 13.2014C29.8664 10.3461 34.5131 10.3461 37.3684 13.2014C40.2241 16.0571 40.2241 20.7038 37.3684 23.5595Z" fill="url(#paint7_linear)"/>
</g>
</g>
<defs>
<linearGradient id="paint0_linear" x1="7.14343" y1="34.6694" x2="11.948" y2="34.6694" gradientUnits="userSpaceOnUse">
<stop stop-color="#8F3CE5"/>
<stop offset="1" stop-color="#3A30D6"/>
</linearGradient>
<linearGradient id="paint1_linear" x1="15.9072" y1="43.561" x2="22.5829" y2="43.561" gradientUnits="userSpaceOnUse">
<stop stop-color="#8F3CE5"/>
<stop offset="1" stop-color="#3A30D6"/>
</linearGradient>
<linearGradient id="paint2_linear" x1="5.81921" y1="44.7776" x2="19.5964" y2="44.7776" gradientUnits="userSpaceOnUse">
<stop stop-color="#8F3CE5"/>
<stop offset="1" stop-color="#3A30D6"/>
</linearGradient>
<linearGradient id="paint3_linear" x1="0.00012207" y1="26.7262" x2="13.4442" y2="26.7262" gradientUnits="userSpaceOnUse">
<stop stop-color="#8F3CE5"/>
<stop offset="1" stop-color="#3A30D6"/>
</linearGradient>
<linearGradient id="paint4_linear" x1="23.9883" y1="50.5792" x2="33.959" y2="50.5792" gradientUnits="userSpaceOnUse">
<stop stop-color="#8F3CE5"/>
<stop offset="1" stop-color="#3A30D6"/>
</linearGradient>
<linearGradient id="paint5_linear" x1="27.7972" y1="22.7729" x2="36.5822" y2="22.7729" gradientUnits="userSpaceOnUse">
<stop stop-color="#8F3CE5"/>
<stop offset="1" stop-color="#3A30D6"/>
</linearGradient>
<linearGradient id="paint6_linear" x1="37.8685" y1="12.6958" x2="50.0002" y2="12.6958" gradientUnits="userSpaceOnUse">
<stop stop-color="#8F3CE5"/>
<stop offset="1" stop-color="#3A30D6"/>
</linearGradient>
<linearGradient id="paint7_linear" x1="11.166" y1="39.5133" x2="47.8485" y2="39.5133" gradientUnits="userSpaceOnUse">
<stop stop-color="#8F3CE5"/>
<stop offset="1" stop-color="#3A30D6"/>
</linearGradient>
<clipPath id="clip0">
<rect x="-1021" y="-2663" width="1366" height="6408" fill="white"/>
</clipPath>
<clipPath id="clip1">
<rect y="0.579102" width="50" height="50" fill="white"/>
</clipPath>
</defs>
</svg>
