<svg width="31" height="31" viewBox="0 0 31 31" fill="none" xmlns="http://www.w3.org/2000/svg">
<path d="M30.7194 0.986149C30.6906 0.863486 30.6041 0.769684 30.4815 0.740822C26.5596 -0.218839 17.4973 3.20131 12.5877 8.11506C11.6288 9.07473 10.843 10.02 10.2014 10.9363C8.6874 10.7992 7.17342 10.9147 5.88293 11.4775C2.24216 13.0793 1.18237 17.2643 0.886787 19.061C0.814693 19.4867 1.16796 19.8547 1.59331 19.8114L7.44017 19.1692C7.44738 19.732 7.48342 20.1794 7.51947 20.4896C7.54831 20.7927 7.68529 21.0741 7.90157 21.2906L10.1653 23.5562C10.3816 23.7727 10.6628 23.9098 10.9656 23.9387C11.2756 23.9747 11.7226 24.0108 12.2777 24.018L11.6361 29.8626C11.5928 30.2883 11.9605 30.6419 12.3858 30.5697C14.181 30.2811 18.3697 29.2204 19.963 25.5766C20.5253 24.285 20.6406 22.777 20.5109 21.2689C21.4265 20.6267 22.3781 19.8403 23.337 18.8806C28.2682 13.9741 31.6639 5.1062 30.7194 0.986149ZM18.9536 12.5237C17.7497 11.3187 17.7497 9.37056 18.9536 8.16557C20.1576 6.96058 22.1042 6.96058 23.3081 8.16557C24.5121 9.37056 24.5121 11.3187 23.3081 12.5237C22.1042 13.7287 20.1576 13.7287 18.9536 12.5237Z" fill="white"/>
</svg>
