<svg width="41" height="30" viewBox="0 0 41 30" fill="none" xmlns="http://www.w3.org/2000/svg">
<path d="M38.9501 0.579102H2.05006C0.918077 0.579102 6.10352e-05 1.50671 6.10352e-05 2.65053V27.5077C6.10352e-05 28.6515 0.918077 29.5791 2.05006 29.5791H38.9501C40.082 29.5791 41.0001 28.6515 41.0001 27.5077V2.65053C41.0001 1.50671 40.082 0.579102 38.9501 0.579102ZM11.2751 19.732V20.7755C11.2751 21.0616 11.0457 21.2934 10.7626 21.2934H9.73756C9.4544 21.2934 9.22506 21.0616 9.22506 20.7755V19.721C8.50179 19.6835 7.79839 19.4285 7.21542 18.9863C6.96558 18.7967 6.95276 18.4186 7.1789 18.2005L7.93164 17.4748C8.10909 17.3039 8.37303 17.2962 8.58059 17.4276C8.82851 17.5842 9.10975 17.6684 9.40187 17.6684H11.2027C11.6191 17.6684 11.9586 17.2852 11.9586 16.8146C11.9586 16.4294 11.7273 16.0902 11.3968 15.9905L8.51397 15.1166C7.32304 14.7554 6.49087 13.6006 6.49087 12.3079C6.49087 10.7207 7.71126 9.43122 9.22442 9.39044V8.34696C9.22442 8.06084 9.45376 7.8291 9.73692 7.8291H10.7619C11.0451 7.8291 11.2744 8.06084 11.2744 8.34696V9.40144C11.9977 9.43899 12.7011 9.69339 13.2841 10.1362C13.5339 10.3258 13.5467 10.7039 13.3206 10.922L12.5678 11.6477C12.3904 11.8185 12.1265 11.8263 11.9189 11.6949C11.671 11.5376 11.3897 11.4541 11.0976 11.4541H9.29681C8.8804 11.4541 8.54087 11.8373 8.54087 12.3079C8.54087 12.6931 8.77214 13.0323 9.1027 13.132L11.9855 14.0058C13.1764 14.367 14.0086 15.5219 14.0086 16.8146C14.0086 18.4024 12.7882 19.6913 11.2751 19.732ZM26.6501 18.7041C26.6501 18.9902 26.4207 19.222 26.1376 19.222H18.9626C18.6794 19.222 18.4501 18.9902 18.4501 18.7041V17.6684C18.4501 17.3823 18.6794 17.1505 18.9626 17.1505H26.1376C26.4207 17.1505 26.6501 17.3823 26.6501 17.6684V18.7041ZM36.9001 18.7041C36.9001 18.9902 36.6707 19.222 36.3876 19.222H31.2626C30.9794 19.222 30.7501 18.9902 30.7501 18.7041V17.6684C30.7501 17.3823 30.9794 17.1505 31.2626 17.1505H36.3876C36.6707 17.1505 36.9001 17.3823 36.9001 17.6684V18.7041ZM36.9001 12.4898C36.9001 12.7759 36.6707 13.0077 36.3876 13.0077H18.9626C18.6794 13.0077 18.4501 12.7759 18.4501 12.4898V11.4541C18.4501 11.168 18.6794 10.9362 18.9626 10.9362H36.3876C36.6707 10.9362 36.9001 11.168 36.9001 11.4541V12.4898Z" fill="white"/>
</svg>
