<svg width="481" height="319" viewBox="0 0 481 319" fill="none" xmlns="http://www.w3.org/2000/svg">
<path d="M321.064 0.112564H304.1C296.893 0.112564 290.977 6.0214 290.977 13.2184C290.977 17.671 293.248 21.6196 296.669 23.9999V33.2132L306.118 26.3243H321.064C328.27 26.3243 334.187 20.4154 334.187 13.2184C334.159 6.0214 328.27 0.112564 321.064 0.112564Z" fill="url(#paint0_linear)"/>
<path d="M303.062 15.2067C304.162 15.2067 305.053 14.3165 305.053 13.2184C305.053 12.1203 304.162 11.2301 303.062 11.2301C301.963 11.2301 301.071 12.1203 301.071 13.2184C301.071 14.3165 301.963 15.2067 303.062 15.2067Z" fill="white"/>
<path d="M312.568 15.2067C313.667 15.2067 314.559 14.3165 314.559 13.2184C314.559 12.1203 313.667 11.2301 312.568 11.2301C311.468 11.2301 310.577 12.1203 310.577 13.2184C310.577 14.3165 311.468 15.2067 312.568 15.2067Z" fill="white"/>
<path d="M322.073 15.2067C323.173 15.2067 324.064 14.3165 324.064 13.2184C324.064 12.1203 323.173 11.2301 322.073 11.2301C320.974 11.2301 320.083 12.1203 320.083 13.2184C320.083 14.3165 320.974 15.2067 322.073 15.2067Z" fill="white"/>
<path d="M274.966 52.48C272.358 47.9994 265.74 45.7591 259.375 53.2081C252.982 45.7591 246.393 47.9994 243.785 52.48C237.336 63.4856 259.375 76.4514 259.375 76.4514C259.375 76.4514 281.415 63.4856 274.966 52.48Z" fill="url(#paint1_linear)"/>
<path d="M192.471 53.208H154.028C152.177 53.208 150.663 51.6958 150.663 49.8476V25.2321C150.663 23.3838 152.177 21.8716 154.028 21.8716H192.471C194.322 21.8716 195.836 23.3838 195.836 25.2321V49.8476C195.836 51.6958 194.322 53.208 192.471 53.208Z" fill="url(#paint2_linear)"/>
<path d="M173.235 63.1215L181.171 52.4519H165.328L173.235 63.1215Z" fill="url(#paint3_linear)"/>
<path d="M175.366 32.7931C174.076 30.6088 170.852 29.4887 167.711 33.1572C164.571 29.5167 161.346 30.6088 160.056 32.7931C156.888 38.1979 167.711 44.5547 167.711 44.5547C167.711 44.5547 178.507 38.1979 175.366 32.7931Z" fill="white"/>
<path d="M185.124 41.5583H183.162V36.2096L183.19 35.3415L183.218 34.3893C182.881 34.7254 182.657 34.9214 182.545 35.0334L181.479 35.8735L180.526 34.6974L183.498 32.317H185.096V41.5583H185.124Z" fill="white"/>
<path d="M400.474 77.9075H362.031C360.18 77.9075 358.666 76.3952 358.666 74.547V49.9315C358.666 48.0833 360.18 46.571 362.031 46.571H400.474C402.325 46.571 403.839 48.0833 403.839 49.9315V74.547C403.839 76.3952 402.353 77.9075 400.474 77.9075Z" fill="url(#paint4_linear)"/>
<path d="M381.266 87.8208L389.174 77.1513H373.331L381.266 87.8208Z" fill="url(#paint5_linear)"/>
<path d="M393.155 66.2577H391.193V60.909L391.221 60.0409L391.249 59.0887C390.912 59.4248 390.688 59.6208 390.576 59.7328L389.51 60.5729L388.557 59.3968L391.529 57.0164H393.127V66.2577H393.155Z" fill="white"/>
<path d="M378.659 56.7364H372.238C369.518 56.7364 367.275 58.9767 367.275 61.6931C367.275 63.3733 368.116 64.8575 369.434 65.7537V69.2262L372.995 66.6218H378.659C381.379 66.6218 383.622 64.3815 383.622 61.6651C383.622 58.9487 381.379 56.7364 378.659 56.7364Z" fill="white"/>
<path d="M299.08 239.266C289.771 243.047 278.05 241.899 269.834 236.074C261.59 230.221 254.02 225.908 243.504 225.572C236.999 225.376 230.886 228.093 224.661 229.661C219.193 231.033 215.043 235.402 209.155 236.214C201.416 237.278 193.48 232.517 190.003 225.544C186.526 218.571 187.284 209.89 191.181 203.113C194.013 198.185 196.621 194.488 193.452 188.999C192.751 187.795 191.882 186.703 191.405 185.387C190.957 184.155 190.873 182.838 190.929 181.522C191.209 174.409 196.621 169.06 200.21 163.18C201.051 161.807 201.893 160.379 202.145 158.783C202.79 154.722 199.565 151.222 197.855 147.497C192.275 135.428 201.78 121.678 211.034 114.453C216.502 110.168 223.035 108.46 228.923 104.959C231.615 103.363 234.055 101.403 236.747 99.8907C241.486 97.2303 246.617 97.1183 251.888 97.8464C266.834 99.9467 283.854 110.784 287.303 126.41C289.659 136.996 285.817 149.318 296.304 156.739C299.473 158.979 303.455 160.295 305.614 163.516C310.212 170.349 303.455 180.458 307.661 187.543C308.586 189.111 309.988 190.371 311.278 191.688C317.98 198.661 321.457 208.658 320.503 218.291C320.279 220.644 319.774 223.024 318.625 225.068C317.026 227.897 314.334 229.885 311.671 231.761C307.717 234.59 303.679 237.362 299.193 239.21C299.165 239.21 299.108 239.238 299.08 239.266Z" fill="#1B1E26"/>
<path d="M312.624 199.697C307.969 195.72 306.988 188.747 308.334 182.782C309.203 178.89 310.941 175.081 310.801 171.077C310.605 166.064 307.128 161.359 302.389 159.679C299.978 158.839 297.314 158.727 295.014 157.607C291.509 155.955 289.603 152.426 288.313 148.954C286.911 145.173 287.5 141.925 287.472 137.948C287.444 132.879 287.331 127.783 286.799 122.742C286.21 116.917 282.705 111.148 278.695 106.948C278.134 106.36 277.517 105.772 276.9 105.211C266.497 95.9421 246.645 91.8816 234.335 99.4146C231.868 100.927 230.353 102.999 228.419 104.987C226.428 107.004 223.876 108.656 221.493 110.14C216.67 113.165 211.454 115.545 206.351 118.093C203.098 119.717 199.761 121.454 197.378 124.198C194.49 127.503 193.2 132.011 193.34 136.38C193.48 140.748 194.91 145.033 196.929 148.926C198.359 151.67 200.07 154.302 200.967 157.271C202.425 162.087 199.621 166.624 196.06 169.733C193.368 172.085 190.256 174.213 188.77 177.49C187.536 180.206 187.648 183.482 189.05 186.087C190.368 188.523 192.695 190.315 193.901 192.808C195.079 195.188 195.107 198.129 193.985 200.537C192.555 203.617 189.302 206.474 190.368 209.694" stroke="#1B1E26" stroke-width="4" stroke-miterlimit="10"/>
<path d="M279.368 192.836C279.957 196.7 279.508 200.677 277.826 204.205C273.255 213.727 261.927 215.575 252.365 215.939C248.832 216.079 245.271 215.911 241.766 215.379C238.653 214.903 235.877 215.379 232.709 215.323C226.484 215.183 220.287 213.335 215.015 210.002C212.464 208.378 210.052 206.334 208.734 203.589C206.94 199.837 207.444 195.384 208.398 191.352C208.958 188.999 209.631 186.675 210.837 184.603C212.127 182.362 213.978 180.486 215.043 178.134C217.062 173.737 215.408 168.584 217.202 164.272C218.604 160.883 222.137 157.075 225.082 154.974C229.063 152.09 234.223 151.194 239.13 151.53C244.037 151.866 248.776 153.35 253.459 154.862C257.132 156.067 260.3 155.31 262.992 158.363C265.123 160.771 264.394 164.692 265.067 167.604C267.339 177.406 277.826 182.586 279.368 192.836Z" fill="#272B35"/>
<path d="M200.462 283.988C189.667 281.468 179.488 276.707 168.496 274.887C161.542 273.739 148.868 271.975 145.195 279.62C143.344 283.456 144.214 288.245 146.849 291.522C152.766 298.859 165.104 300.819 173.768 302.667C187.592 305.608 201.64 306.196 215.744 305.748C219.726 305.636 223.876 305.355 227.297 303.311C230.718 301.267 233.045 296.842 231.447 293.202C229.036 287.629 220.119 287.741 215.043 286.901C210.136 286.089 205.285 285.109 200.462 283.988Z" fill="#FFCC99"/>
<path d="M212.884 236.018C204.781 245.399 196.004 254.192 187.508 263.182C185.741 265.03 184.003 266.906 182.32 268.81C181.479 269.762 180.498 270.743 179.825 271.807C179.264 272.675 178.002 274.439 176.909 276.875C166.786 273.851 154.953 276.063 145.223 279.62C146.345 272.031 149.373 267.354 150.242 265.422C154.504 255.761 161.486 247.667 168.048 239.546C176.039 229.689 184.423 220.167 192.078 210.058C198.303 201.853 208.819 192.612 219.165 200.145C227.129 205.969 223.54 217.703 220.287 225.124C218.52 229.101 215.801 232.629 212.884 236.018Z" fill="url(#paint6_linear)"/>
<path d="M277.349 283.988C288.145 281.468 298.323 276.707 309.315 274.887C316.269 273.739 328.943 271.975 332.616 279.62C334.467 283.456 333.598 288.245 330.962 291.522C325.046 298.859 312.708 300.819 304.043 302.667C290.22 305.608 276.171 306.196 262.067 305.748C258.085 305.636 253.935 305.355 250.514 303.311C247.094 301.267 244.766 296.842 246.364 293.202C248.776 287.629 257.693 287.741 262.768 286.901C267.675 286.089 272.526 285.109 277.349 283.988Z" fill="#FFCC99"/>
<path d="M264.955 236.018C273.059 245.399 281.835 254.192 290.332 263.182C292.098 265.03 293.837 266.906 295.519 268.81C296.36 269.762 297.342 270.743 298.043 271.807C298.604 272.675 299.865 274.439 300.959 276.875C311.082 273.851 322.915 276.063 332.645 279.62C331.523 272.031 328.494 267.354 327.625 265.422C323.363 255.761 316.381 247.667 309.82 239.546C301.828 229.689 293.444 220.167 285.789 210.058C279.564 201.853 269.049 192.612 258.702 200.145C250.739 205.969 254.328 217.703 257.581 225.124C259.291 229.101 262.011 232.629 264.955 236.018Z" fill="url(#paint7_linear)"/>
<path d="M274.181 312.077C278.247 308.464 274.405 297.907 273.732 293.958C272.442 286.425 271.994 278.164 274.545 270.799C278.219 260.269 282.733 251.952 283.014 240.218C283.238 230.165 281.219 220.28 279.2 210.478C277.209 200.789 276.284 197.96 266.806 196.504C263.413 195.972 260.077 195.048 256.684 194.46C250.963 193.452 245.131 192.976 239.327 192.976C239.243 192.976 239.187 192.976 239.102 192.976C239.018 192.976 238.962 192.976 238.878 192.976C233.046 192.976 227.241 193.452 221.521 194.46C218.128 195.048 214.791 195.972 211.398 196.504C201.893 197.988 200.996 200.789 199.005 210.478C196.986 220.28 194.967 230.165 195.191 240.218C195.472 251.952 199.986 260.269 203.659 270.799C207.557 281.972 204.613 293.426 201.612 304.319C201.164 305.972 201.024 307.876 202.061 309.22C202.706 310.06 203.715 310.508 204.697 310.872C208.034 312.049 211.623 312.245 215.184 312.413C233.522 313.281 251.861 313.253 270.227 313.225C271.124 313.225 272.078 313.225 272.919 312.889C273.396 312.665 273.816 312.413 274.181 312.077Z" fill="url(#paint8_linear)"/>
<path d="M269.162 198.521C269.75 196.728 271.966 192.696 270.844 191.128C269.722 189.531 265.572 189.895 263.946 189.951C246.084 190.54 228.223 191.156 210.333 191.744C211.37 195.58 211.398 199.137 212.884 202.917C214.118 206.138 215.801 209.19 217.904 211.906C222.138 217.367 228.082 221.176 234.896 222.52C246.393 224.76 259.123 219.16 264.955 208.994C266.806 205.746 267.984 202.105 269.162 198.521Z" fill="url(#paint9_linear)"/>
<path d="M225.699 211.878C231.307 218.235 242.046 218.739 249.589 216.135C254.72 214.371 258.338 210.338 258.45 204.793C258.562 198.577 253.122 194.18 251.748 188.411C250.963 185.135 251.047 181.746 251.131 178.414C251.215 174.521 251.243 170.629 251.44 166.736C247.57 165.924 244.458 165.504 240.364 165.672C236.971 165.812 233.578 165.448 230.213 165.644C229.933 165.672 229.652 165.7 229.456 165.868C229.26 166.036 229.232 166.344 229.204 166.596C228.755 171.861 229.204 177.182 228.839 182.446C228.503 187.291 227.437 192.164 224.577 196.168C221.1 201.041 221.941 207.622 225.699 211.878Z" fill="#FFCC99"/>
<path d="M235.989 110.364C238.822 108.908 241.99 108.208 245.159 108.068C248.327 107.928 251.524 108.348 254.636 109.048C260.861 110.42 266.694 113.585 271.208 118.121C275.751 122.63 278.919 128.567 279.817 134.952C280.265 138.144 280.097 141.336 280.153 144.473C280.209 147.609 280.461 150.802 281.751 153.574C283.069 156.347 285.34 158.587 287.864 160.407C290.416 162.227 293.22 163.712 295.912 165.392C297.258 166.232 298.688 167.1 299.669 168.5C300.651 169.928 300.875 171.665 300.903 173.261C300.931 174.885 300.707 176.509 300.286 178.05C299.865 179.618 299.136 181.074 298.548 182.502C297.931 183.93 297.538 185.443 297.706 186.955C297.846 188.495 298.351 189.979 299.024 191.38C300.37 194.208 302.025 196.924 303.399 199.809C304.772 202.665 305.81 205.746 306.062 208.938C306.343 212.102 305.95 215.323 304.885 218.319C305.866 215.295 306.174 212.102 305.838 208.966C305.53 205.83 304.408 202.833 303.006 200.005C301.604 197.176 299.921 194.488 298.519 191.632C297.846 190.203 297.258 188.663 297.089 187.011C296.893 185.359 297.314 183.706 297.931 182.222C298.548 180.738 299.22 179.338 299.585 177.826C299.978 176.341 300.174 174.773 300.146 173.233C300.118 171.693 299.893 170.125 299.052 168.92C298.211 167.716 296.865 166.876 295.519 166.036C292.827 164.384 289.995 162.928 287.387 161.051C284.78 159.203 282.368 156.879 280.966 153.91C279.592 150.914 279.368 147.609 279.312 144.445C279.256 141.252 279.424 138.116 279.003 135.008C278.162 128.791 275.078 123.022 270.703 118.541C266.329 114.033 260.637 110.868 254.496 109.412C251.44 108.628 248.299 108.152 245.131 108.236C242.018 108.348 238.85 108.964 235.989 110.364Z" fill="#272B35"/>
<path d="M251.496 187.599C250.879 184.547 250.963 181.438 251.019 178.358C251.103 174.465 251.131 170.573 251.328 166.68C247.458 165.868 244.346 165.448 240.252 165.616C236.859 165.756 233.466 165.392 230.101 165.588C229.821 165.616 229.54 165.644 229.344 165.812C229.148 165.98 229.12 166.288 229.092 166.54C228.643 171.805 229.092 177.126 228.727 182.39C228.615 183.902 228.447 185.415 228.166 186.899C228.699 187.375 229.232 187.823 229.793 188.215C233.971 191.295 239.607 192.332 244.626 190.903C247.15 190.203 249.449 189.055 251.496 187.599Z" fill="#FFB87D"/>
<path d="M265.796 145.845C265.684 140.692 264.899 135.82 263.525 131.759C257.552 114.313 235.597 110.308 222.614 123.078C208.117 137.304 214.23 170.769 229.877 182.334C234.055 185.415 239.691 186.451 244.71 185.023C259.824 180.738 266.133 161.947 265.796 145.845Z" fill="#FFCC99"/>
<path d="M265.768 130.723C261.058 112.912 239.467 107.312 225.587 119.129C223.371 121.006 221.829 123.246 220.259 125.654C218.913 127.699 217.062 129.239 215.885 131.479C214.679 133.775 213.922 136.324 213.669 138.9C213.417 141.42 214.258 143.633 214.314 146.041C214.258 143.521 215.352 140.972 217.231 139.292C218.689 137.976 220.567 137.22 222.278 136.24C223.988 135.26 225.671 133.971 226.316 132.123C231.84 139.348 240.42 141.56 248.832 143.661C255.898 145.425 263.665 149.878 263.834 158.111C263.862 159.147 263.918 159.455 264.366 160.827C264.871 159.595 265.039 158.671 265.208 157.355C265.348 156.01 265.74 154.666 266.021 153.322C266.553 150.55 266.918 147.749 267.058 144.921C267.283 139.768 266.862 134.84 265.768 130.723Z" fill="#FFB87D"/>
<path d="M269.806 161.303C271.208 160.239 272.274 158.671 272.891 157.019C274.769 151.474 274.573 145.341 274.349 139.432C274.209 136.128 274.096 132.767 273.171 129.603C272.19 126.158 270.311 123.106 268.096 120.502C261.703 112.94 252.141 109.104 242.972 109.888C239.27 110.196 236.578 111.96 233.326 113.473C230.157 114.929 226.456 115.741 223.119 116.833C219.278 118.093 215.324 119.409 212.296 122.07C210.08 124.002 208.454 126.578 207.304 129.295C205.902 132.543 205.79 136.156 206.183 139.628C206.519 142.485 206.884 145.537 208.146 148.225C209.323 150.718 211.987 152.37 214.371 153.602C214.006 153.406 214.314 149.29 214.314 148.645C214.258 145.005 214.455 141.252 215.604 137.78C216.698 134.363 218.885 132.291 221.745 130.191C222.895 129.351 224.016 128.511 224.97 127.446C225.446 126.914 227.521 124.506 227.185 123.75C228.811 127.306 231.335 130.947 234.475 133.271C240.476 137.696 247.15 140.832 253.935 143.465C254.44 143.661 254.945 143.857 255.45 144.053C257.3 144.809 259.151 145.649 260.693 147.049C264.114 150.158 264.367 154.918 264.226 159.231C264.226 159.707 264.198 160.183 264.367 160.631C265.011 162.759 268.432 162.339 269.806 161.303Z" fill="#272B35"/>
<path d="M296.417 295.47H182.461L174.301 210.73C174.161 209.218 175.339 207.902 176.825 207.902H302.053C303.567 207.902 304.745 209.218 304.577 210.73L296.417 295.47Z" fill="#F0F0F0"/>
<path d="M297.286 297.879H181.535L173.236 213.139C173.095 211.626 174.273 210.31 175.815 210.31H303.006C304.548 210.31 305.726 211.626 305.586 213.139L297.286 297.879Z" fill="white"/>
<path d="M297.23 297.878H181.563V303.031H297.23V297.878Z" fill="#F0F0F0"/>
<path d="M247.222 255.924C248.243 251.619 245.576 247.303 241.266 246.284C236.956 245.264 232.635 247.927 231.614 252.231C230.593 256.536 233.259 260.852 237.569 261.871C241.879 262.891 246.201 260.228 247.222 255.924Z" fill="#F0F0F0"/>
<path d="M20.0523 182.89L17.079 183.598L44.183 297.198L47.1562 296.49L20.0523 182.89Z" fill="#272B35"/>
<path d="M26.0693 181.671L23.096 182.378L50.8834 298.893L53.8567 298.186L26.0693 181.671Z" fill="#272B35"/>
<path d="M87.0378 121.006L84.9869 118.742L24.2746 173.611L26.3254 175.874L87.0378 121.006Z" fill="#272B35"/>
<path d="M88.8092 127.699L86.7584 125.436L26.0459 180.305L28.0967 182.568L88.8092 127.699Z" fill="#272B35"/>
<path d="M101.48 297.851H39.8755V302.611H101.48V297.851Z" fill="#1B1E26"/>
<path d="M91.9464 288.329H49.4093C44.1377 288.329 39.8755 292.586 39.8755 297.85H101.48C101.48 292.586 97.218 288.329 91.9464 288.329Z" fill="#272B35"/>
<path d="M88.2731 127.951L86.7589 125.318L104.985 114.789L106.527 117.449L88.2731 127.951Z" fill="url(#paint10_linear)"/>
<path d="M32.6691 182.446L28.3509 188.439C27.734 189.307 26.5563 189.587 25.603 189.111L16.5179 184.463C15.3121 183.846 14.9757 182.334 15.7608 181.242L22.6587 171.833C23.4999 170.685 25.2104 170.657 26.1077 171.749L32.613 179.814C33.2019 180.57 33.2299 181.634 32.6691 182.446Z" fill="#1B1E26"/>
<path d="M17.4432 183.314C18.0007 183.314 18.4526 182.863 18.4526 182.306C18.4526 181.749 18.0007 181.298 17.4432 181.298C16.8857 181.298 16.4338 181.749 16.4338 182.306C16.4338 182.863 16.8857 183.314 17.4432 183.314Z" fill="white"/>
<path d="M27.734 187.067C27.734 187.627 27.2853 188.075 26.7245 188.075C26.1637 188.075 25.715 187.627 25.715 187.067C25.715 186.507 26.1637 186.059 26.7245 186.059C27.2853 186.059 27.734 186.507 27.734 187.067Z" fill="white"/>
<path d="M31.8839 181.102C31.8839 181.662 31.4353 182.11 30.8745 182.11C30.3137 182.11 29.8651 181.662 29.8651 181.102C29.8651 180.542 30.3137 180.094 30.8745 180.094C31.4353 180.094 31.8839 180.542 31.8839 181.102Z" fill="white"/>
<path d="M81.4032 120.614L84.011 131.143C84.4316 132.823 86.5065 133.411 87.7403 132.207L95.5636 124.702C96.7974 123.498 96.2927 121.426 94.6383 120.95L84.2072 117.953C82.5528 117.449 80.9826 118.933 81.4032 120.614Z" fill="#1B1E26"/>
<path d="M87.1235 131.003C86.815 131.451 86.1981 131.591 85.7495 131.283C85.3008 130.975 85.1606 130.359 85.4691 129.911C85.7775 129.463 86.3944 129.323 86.8431 129.631C87.3197 129.911 87.4319 130.527 87.1235 131.003Z" fill="white"/>
<path d="M84.3474 120.362C84.039 120.81 83.4221 120.95 82.9734 120.642C82.5248 120.334 82.3846 119.717 82.693 119.269C83.0015 118.821 83.6184 118.681 84.067 118.989C84.5156 119.297 84.6558 119.913 84.3474 120.362Z" fill="white"/>
<path d="M95.0868 123.666C94.7784 124.114 94.1615 124.254 93.7129 123.946C93.2642 123.638 93.124 123.022 93.4325 122.574C93.7409 122.126 94.3578 121.986 94.8064 122.294C95.2831 122.574 95.3952 123.19 95.0868 123.666Z" fill="white"/>
<path d="M25.4629 172.897C25.4629 173.457 25.0142 173.905 24.4534 173.905C23.8926 173.905 23.444 173.457 23.444 172.897C23.444 172.337 23.8926 171.889 24.4534 171.889C25.0142 171.917 25.4629 172.365 25.4629 172.897Z" fill="white"/>
<path d="M126.212 121.034L106.387 125.262L100.723 98.7984C100.331 97.0062 101.48 95.2139 103.303 94.8499L116.594 92.0215C118.389 91.6294 120.183 92.7776 120.548 94.5978L126.212 121.034Z" fill="url(#paint11_linear)"/>
<path d="M124.894 114.677L104.957 118.933L103.836 113.641L123.744 109.384L124.894 114.677Z" fill="url(#paint12_linear)"/>
<path d="M149.485 134.055L92.5073 146.237L104.985 118.905L124.838 114.649L149.485 134.055Z" fill="url(#paint13_linear)"/>
<path d="M115.22 116.721L124.838 114.677L149.485 134.083C149.485 134.083 128.876 138.62 120.548 140.328" fill="url(#paint14_linear)"/>
<path d="M124.922 114.649L115.22 116.721L110.229 93.4217L116.734 92.0215C118.501 91.6574 120.239 92.7776 120.604 94.5418L124.922 114.649Z" fill="url(#paint15_linear)"/>
<path d="M134.652 283.345C134.343 283.401 134.007 283.204 133.951 282.896L132.941 278.08C132.885 277.772 133.082 277.436 133.39 277.38C133.699 277.324 134.035 277.52 134.091 277.828L135.101 282.644C135.157 282.98 134.96 283.289 134.652 283.345Z" fill="#00A3D5"/>
<path d="M127.277 248.004C126.408 248.2 125.539 247.612 125.342 246.743L124.137 240.975C123.94 240.106 124.529 239.238 125.399 239.042C126.268 238.846 127.137 239.434 127.333 240.302L128.539 246.071C128.707 246.967 128.146 247.808 127.277 248.004Z" fill="url(#paint16_linear)"/>
<path d="M134.063 280.572C133.194 280.768 132.325 280.18 132.128 279.312L130.922 273.543C130.726 272.675 131.315 271.807 132.184 271.611C133.054 271.415 133.923 272.003 134.119 272.871L135.325 278.64C135.521 279.536 134.932 280.404 134.063 280.572Z" fill="#00A3D5"/>
<path d="M128.118 243.159L124.529 243.915C123.632 244.111 123.043 244.979 123.239 245.875L126.296 260.521L130.109 275.111C130.334 275.979 131.203 276.512 132.072 276.315L134.203 275.867C135.072 275.699 135.633 274.859 135.521 273.991L133.194 259.093L130.137 244.447C129.913 243.551 129.044 242.963 128.118 243.159Z" fill="url(#paint17_linear)"/>
<path d="M132.745 260.185L127.109 261.361C126.576 261.473 126.071 261.137 125.959 260.605C125.847 260.073 126.184 259.569 126.716 259.457L132.352 258.281C132.885 258.169 133.39 258.505 133.502 259.037C133.614 259.541 133.278 260.073 132.745 260.185Z" fill="url(#paint18_linear)"/>
<path d="M135.269 257.665C134.848 257.749 134.456 257.497 134.371 257.077L131.483 243.243C131.399 242.823 131.651 242.431 132.072 242.347C132.493 242.263 132.885 242.515 132.969 242.935L135.858 256.769C135.942 257.161 135.689 257.581 135.269 257.665Z" fill="url(#paint19_linear)"/>
<path d="M132.521 248.172L130.951 248.508L130.109 244.447L131.652 244.111L132.521 248.172Z" fill="url(#paint20_linear)"/>
<path d="M143.316 234.366L135.914 234.002L134.119 269.063L141.494 269.455L143.316 234.366Z" fill="url(#paint21_linear)"/>
<path d="M141.634 234.282L137.596 234.086L135.801 269.175L139.811 269.371L141.634 234.282Z" fill="url(#paint22_linear)"/>
<path d="M137.147 281.02L141.494 269.455L134.007 269.063L137.147 281.02Z" fill="#0B2D4E"/>
<path d="M139.419 274.999L141.494 269.455L134.007 269.063L135.493 274.803L139.419 274.999Z" fill="#FFE9CC"/>
<path d="M143.496 230.726L136.103 230.347L135.914 234.011L143.307 234.389L143.496 230.726Z" fill="#1B1E26"/>
<path d="M143.484 230.865L136.082 230.473C136.194 228.457 137.905 226.917 139.923 227.001H140.008C142.026 227.141 143.597 228.849 143.484 230.865Z" fill="url(#paint23_linear)"/>
<path d="M135.858 275.279L142.559 278.36L157.308 246.463L150.579 243.383L135.858 275.279Z" fill="url(#paint24_linear)"/>
<path d="M137.372 275.979L141.045 277.66L155.794 245.763L152.121 244.083L137.372 275.979Z" fill="url(#paint25_linear)"/>
<path d="M158.963 234.254L150.579 243.383L157.421 246.519L158.963 234.254Z" fill="#1B1E26"/>
<path d="M154.588 239.014L150.579 243.383L157.421 246.519L158.15 240.667L154.588 239.014Z" fill="#FFCC99"/>
<path d="M134.31 278.565L141.031 281.663L142.571 278.332L135.849 275.234L134.31 278.565Z" fill="#51666F"/>
<path d="M134.371 278.472L141.101 281.58L139.811 284.381C139.671 284.661 139.334 284.773 139.054 284.661L133.362 282.028C133.081 281.888 132.969 281.552 133.081 281.272L134.371 278.472Z" fill="#D8584E"/>
<path d="M126.52 302.667H148.896V266.794H126.52V302.667Z" fill="url(#paint26_linear)"/>
<path opacity="0.1" d="M126.52 302.667H137.708V266.794H126.52V302.667Z" fill="url(#paint27_linear)"/>
<path d="M103.667 302.751H86.2261C82.9734 302.751 80.3376 300.119 80.3376 296.87V260.969H109.556V296.87C109.556 300.119 106.92 302.751 103.667 302.751Z" fill="url(#paint28_linear)"/>
<path d="M113.033 271.415C107.733 271.415 103.443 275.755 103.443 281.132C103.443 286.509 107.733 290.849 113.033 290.849C118.332 290.849 122.622 286.509 122.622 281.132C122.622 275.755 118.332 271.415 113.033 271.415ZM113.033 287.377C109.612 287.377 106.864 284.577 106.864 281.132C106.864 277.688 109.612 274.887 113.033 274.887C116.454 274.887 119.201 277.688 119.201 281.132C119.201 284.577 116.425 287.377 113.033 287.377Z" fill="#FFC73C"/>
<path d="M84.7119 286.901C83.8426 286.901 83.1416 286.201 83.1416 285.333V265.002C83.1416 264.134 83.8426 263.434 84.7119 263.434C85.5811 263.434 86.2821 264.134 86.2821 265.002V285.333C86.2821 286.201 85.5811 286.901 84.7119 286.901Z" fill="url(#paint29_linear)"/>
<path d="M102.826 260.969V295.386C102.826 299.475 99.5172 302.779 95.4233 302.779H102.181C106.275 302.779 109.584 299.475 109.584 295.386V260.969H102.826Z" fill="url(#paint30_linear)"/>
<path d="M416.261 121.846C413.345 121.818 410.513 121.454 408.522 118.597C404.596 112.996 398.596 107.956 391.894 113.64C388.025 116.945 390.941 123.694 387.604 126.97C384.66 129.855 380.902 129.379 379.388 134.167C377.173 141.196 384.155 147.357 386.398 153.434C388.277 158.531 384.043 160.491 382.136 164.468C380.678 167.52 381.435 170.825 383.033 173.737C385.866 178.918 392.118 183.062 390.66 189.755C389.455 195.328 388.333 200.313 393.268 204.541C396.661 207.454 402.942 210.086 402.437 215.463C402.269 217.367 400.951 218.991 400.587 220.868C400.026 223.836 401.933 226.72 404.176 228.765C409.251 233.385 413.71 237.754 417.523 243.579C419.149 246.071 425.655 251.7 423.047 255.088C427.786 248.9 432.777 242.907 437.067 236.382C440.6 231.033 445.928 223.192 442.311 216.611C441.189 214.567 439.086 213.026 438.497 210.758C437.46 206.67 441.498 202.861 442.984 199.389C445.339 193.928 443.601 187.571 439.479 183.454C437.516 181.522 435.385 179.366 435.104 176.621C434.796 173.625 436.675 170.825 437.516 168.08C438.301 165.532 438.806 162.815 439.086 160.183C439.282 158.307 439.366 156.403 438.918 154.582C438.077 151.11 434.936 149.177 432.637 146.713C427.113 140.832 430.029 133.943 427.618 127.11C425.458 121.062 420.776 121.874 416.261 121.846Z" fill="url(#paint31_linear)"/>
<path d="M424.924 262.089C426.971 238.622 425.093 214.987 420.746 191.855C416.596 169.816 411.185 147.693 402.941 126.802C400.221 119.885 397.165 113.108 393.688 106.556" stroke="#39DDBF" stroke-miterlimit="10"/>
<path d="M375.125 138.032C386.678 142.121 397.726 147.693 407.848 154.61C410.428 156.375 411.858 156.907 413.989 159.147" stroke="#39DDBF" stroke-miterlimit="10"/>
<path d="M419.485 184.294C408.381 177.125 395.791 172.281 382.752 170.124" stroke="#39DDBF" stroke-miterlimit="10"/>
<path d="M423.859 214.567C413.54 205.633 400.95 199.305 387.603 196.392" stroke="#39DDBF" stroke-miterlimit="10"/>
<path d="M413.428 158.363C414.241 145.957 417.326 133.691 422.513 122.378" stroke="#39DDBF" stroke-miterlimit="10"/>
<path d="M419.345 183.258C424.588 172.057 432.187 161.919 441.468 153.742" stroke="#39DDBF" stroke-miterlimit="10"/>
<path d="M424.56 215.407C425.289 211.934 426.551 208.602 428.318 205.521C430.364 201.937 433.028 198.772 435.748 195.692C437.711 193.48 439.702 191.267 441.721 189.111" stroke="#39DDBF" stroke-width="5" stroke-miterlimit="10"/>
<path d="M452.125 164.608C454.256 165 456.359 165.112 458.209 163.32C461.827 159.791 466.874 156.963 470.968 162.031C473.323 164.944 470.267 169.452 472.23 172.281C473.968 174.773 476.744 174.941 477.193 178.638C477.838 184.042 471.893 187.543 469.426 191.66C467.351 195.104 470.155 197.092 470.996 200.257C471.641 202.693 470.631 204.961 469.061 206.866C466.313 210.226 461.182 212.382 461.322 217.423C461.434 221.652 461.546 225.404 457.396 227.785C454.536 229.409 449.629 230.473 449.209 234.45C449.068 235.85 449.797 237.222 449.797 238.622C449.797 240.862 448.003 242.683 446.096 243.859C441.778 246.519 437.936 249.068 434.347 252.764C432.833 254.332 427.309 257.525 428.739 260.353C426.159 255.2 423.355 250.16 421.14 244.839C419.318 240.47 416.542 234.057 420.075 229.773C421.168 228.429 422.907 227.617 423.636 226.048C424.954 223.22 422.57 219.915 421.953 217.171C421 212.886 423.131 208.518 426.72 206.11C428.403 204.961 430.253 203.729 430.842 201.769C431.487 199.641 430.506 197.344 430.281 195.244C430.057 193.284 430.085 191.267 430.253 189.307C430.365 187.935 430.562 186.535 431.151 185.275C432.244 182.866 434.768 181.914 436.815 180.43C441.638 176.929 440.488 171.525 443.18 166.904C445.535 162.759 448.844 164.02 452.125 164.608Z" fill="url(#paint32_linear)"/>
<path d="M427.309 265.338C429.076 248.031 433.73 231.145 440.068 214.987C446.124 199.557 453.134 184.266 461.995 170.265C464.939 165.644 468.08 161.135 471.501 156.851" stroke="#82DA3B" stroke-miterlimit="10"/>
<path d="M480.614 182.222C471.669 183.594 462.892 186.115 454.593 189.727C452.49 190.651 451.368 190.847 449.517 192.164" stroke="#82DA3B" stroke-miterlimit="10"/>
<path d="M442.058 209.638C451.115 205.969 460.901 204.205 470.659 204.457" stroke="#82DA3B" stroke-miterlimit="10"/>
<path d="M434.656 230.977C443.376 225.908 453.387 223.08 463.481 222.8" stroke="#82DA3B" stroke-miterlimit="10"/>
<path d="M450.022 191.688C451.143 182.558 450.61 173.261 448.423 164.328" stroke="#82DA3B" stroke-miterlimit="10"/>
<path d="M442.283 208.91C440.04 200.061 435.946 191.66 430.338 184.435" stroke="#82DA3B" stroke-miterlimit="10"/>
<path d="M434.039 231.509C433.983 228.905 433.534 226.3 432.693 223.808C431.712 220.924 430.197 218.263 428.655 215.631C427.534 213.755 426.412 211.878 425.234 210.03" stroke="#82DA3B" stroke-miterlimit="10"/>
<path d="M406.699 259.345H450.022L442.423 302.611H414.298L406.699 259.345Z" fill="url(#paint33_linear)"/>
<path d="M401.4 259.345H455.321V247.191H401.4V259.345Z" fill="url(#paint34_linear)"/>
<path d="M449.012 265.086H407.709L406.699 259.345H450.022L449.012 265.086Z" fill="url(#paint35_linear)"/>
<path d="M412.84 302.583H345.319C339.711 302.583 335.14 299.055 335.14 294.686V292.67C335.14 288.301 339.683 284.773 345.319 284.773H412.84V287.209H350.03C347.87 287.209 346.132 288.581 346.132 290.261V297.15C346.132 298.831 347.87 300.203 350.03 300.203H412.84V302.583Z" fill="url(#paint36_linear)"/>
<path d="M420.663 302.583H353.142C347.534 302.583 342.964 299.055 342.964 294.686V292.67C342.964 288.301 347.506 284.773 353.142 284.773H420.663V287.209H353.142C349.245 287.209 346.104 289.645 346.104 292.67V294.686C346.104 297.71 349.245 300.147 353.142 300.147H420.663V302.583Z" fill="url(#paint37_linear)"/>
<path d="M418.841 300.147H352.413C348.824 300.147 345.908 297.234 345.908 293.65C345.908 290.065 348.824 287.153 352.413 287.153H418.841V300.147Z" fill="white"/>
<path d="M349.553 292.782C354.6 292.642 359.647 292.53 364.695 292.502C369.742 292.446 374.789 292.418 379.836 292.418C384.884 292.418 389.931 292.446 394.978 292.502C400.025 292.558 405.073 292.642 410.12 292.782C405.073 292.922 400.025 293.034 394.978 293.062C389.931 293.118 384.884 293.146 379.836 293.146C374.789 293.146 369.742 293.118 364.695 293.062C359.647 293.006 354.6 292.922 349.553 292.782Z" fill="#DFDBDA"/>
<path d="M357.713 296.786C362.76 296.646 367.807 296.562 372.854 296.506C377.902 296.45 382.949 296.422 387.996 296.422C393.043 296.422 398.091 296.45 403.138 296.506C408.185 296.562 413.232 296.646 418.28 296.786C413.232 296.926 408.185 297.038 403.138 297.066C398.091 297.122 393.043 297.15 387.996 297.15C382.949 297.15 377.902 297.122 372.854 297.066C367.807 297.038 362.76 296.926 357.713 296.786Z" fill="#DFDBDA"/>
<g opacity="0.1">
<path opacity="0.1" d="M346.525 290.793C348.235 287.741 350.647 287.181 352.385 287.181H418.953V291.27" fill="#231F20"/>
</g>
<path d="M417.298 284.745H346.665C342.795 284.745 339.627 281.58 339.627 277.716V268.866C339.627 265.002 342.795 261.837 346.665 261.837H417.298V264.974H346.665C344.506 264.974 342.767 266.738 342.767 268.866V277.716C342.767 279.872 344.534 281.608 346.665 281.608H417.298V284.745Z" fill="url(#paint38_linear)"/>
<path d="M415.476 281.636H346.468C344.309 281.636 342.571 279.9 342.571 277.744V268.894C342.571 266.738 344.309 265.002 346.468 265.002H415.476V281.636Z" fill="white"/>
<g opacity="0.1">
<path opacity="0.1" d="M342.543 268.866C342.543 266.71 344.281 264.974 346.44 264.974H415.448V269.062" fill="#231F20"/>
</g>
<path d="M352.189 272.227C357.236 272.059 362.283 271.947 367.331 271.891C372.378 271.835 377.425 271.807 382.473 271.807C387.52 271.807 392.567 271.835 397.614 271.891C402.662 271.947 407.709 272.059 412.756 272.227C407.709 272.395 402.662 272.507 397.614 272.563C392.567 272.619 387.52 272.647 382.473 272.647C377.425 272.647 372.378 272.619 367.331 272.563C362.312 272.507 357.236 272.395 352.189 272.227Z" fill="#DFDBDA"/>
<path d="M346.721 275.811C351.768 275.643 356.815 275.531 361.863 275.475C366.91 275.419 371.957 275.391 377.004 275.391C382.052 275.391 387.099 275.419 392.146 275.475C397.193 275.531 402.241 275.643 407.288 275.811C402.241 275.979 397.193 276.091 392.146 276.147C387.099 276.203 382.052 276.231 377.004 276.231C371.957 276.231 366.91 276.203 361.863 276.147C356.815 276.091 351.768 275.979 346.721 275.811Z" fill="#DFDBDA"/>
<path d="M350.787 250.16H418.308C423.916 250.16 428.486 246.631 428.486 242.263V240.246C428.486 235.878 423.944 232.349 418.308 232.349H350.787V234.786H413.597C415.756 234.786 417.495 236.158 417.495 237.838V244.727C417.495 246.407 415.756 247.779 413.597 247.779H350.787V250.16Z" fill="url(#paint39_linear)"/>
<path d="M342.992 250.16H410.513C416.121 250.16 420.691 246.631 420.691 242.263V240.246C420.691 235.878 416.149 232.349 410.513 232.349H342.992V234.786H410.513C414.41 234.786 417.551 237.222 417.551 240.246V242.263C417.551 245.287 414.41 247.723 410.513 247.723H342.992V250.16Z" fill="url(#paint40_linear)"/>
<path d="M344.814 247.723H411.242C414.831 247.723 417.747 244.811 417.747 241.227C417.747 237.642 414.831 234.73 411.242 234.73H344.814V247.723Z" fill="white"/>
<path d="M414.074 240.358C409.027 240.218 403.979 240.106 398.932 240.078C393.885 240.022 388.838 239.994 383.79 239.994C378.743 239.994 373.696 240.022 368.648 240.078C363.601 240.134 358.554 240.218 353.507 240.358C358.554 240.498 363.601 240.61 368.648 240.638C373.696 240.694 378.743 240.722 383.79 240.722C388.838 240.722 393.885 240.694 398.932 240.638C403.979 240.582 409.027 240.498 414.074 240.358Z" fill="#DFDBDA"/>
<path d="M405.914 244.363C400.867 244.223 395.82 244.111 390.772 244.083C385.725 244.027 380.678 243.999 375.631 243.999C370.583 243.999 365.536 244.027 360.489 244.083C355.442 244.139 350.394 244.223 345.347 244.363C350.394 244.503 355.442 244.615 360.489 244.643C365.536 244.699 370.583 244.727 375.631 244.727C380.678 244.727 385.725 244.699 390.772 244.643C395.82 244.615 400.867 244.503 405.914 244.363Z" fill="#DFDBDA"/>
<g opacity="0.1">
<path opacity="0.1" d="M417.102 238.37C415.392 235.318 412.98 234.758 411.242 234.758H344.674V238.846" fill="#231F20"/>
</g>
<path d="M422.738 250.16H337.243V262.202H422.738V250.16Z" fill="url(#paint41_linear)"/>
<path d="M348.179 252.008H344.954V260.325H348.179V252.008Z" fill="url(#paint42_linear)"/>
<path d="M364.218 252.008H360.993V260.325H364.218V252.008Z" fill="url(#paint43_linear)"/>
<path d="M359.227 250.16H350.142V262.202H359.227V250.16Z" fill="url(#paint44_linear)"/>
<path d="M414.915 201.797H329.42V213.839H414.915V201.797Z" fill="url(#paint45_linear)"/>
<path d="M407.204 201.797H403.979V213.839H407.204V201.797Z" fill="url(#paint46_linear)"/>
<path d="M402.016 201.797H397.081V213.839H402.016V201.797Z" fill="url(#paint47_linear)"/>
<path d="M423.439 213.839H337.944V232.517H423.439V213.839Z" fill="url(#paint48_linear)"/>
<path d="M348.88 216.695H345.656V229.101H348.88V216.695Z" fill="url(#paint49_linear)"/>
<path d="M417.831 216.695H414.606V229.101H417.831V216.695Z" fill="url(#paint50_linear)"/>
<path d="M412.027 216.695H408.802V229.101H412.027V216.695Z" fill="url(#paint51_linear)"/>
<path d="M358.105 229.129C361.543 229.129 364.33 226.345 364.33 222.912C364.33 219.478 361.543 216.695 358.105 216.695C354.667 216.695 351.88 219.478 351.88 222.912C351.88 226.345 354.667 229.129 358.105 229.129Z" fill="url(#paint52_linear)"/>
<path d="M400.586 240.358H396.184V253.324H400.586V240.358Z" fill="url(#paint53_linear)"/>
<path d="M230.33 157.091C231.644 157.091 232.709 156.292 232.709 155.307C232.709 154.321 231.644 153.522 230.33 153.522C229.015 153.522 227.95 154.321 227.95 155.307C227.95 156.292 229.015 157.091 230.33 157.091Z" fill="#1B1E26"/>
<path d="M242.227 157.091C243.542 157.091 244.607 156.292 244.607 155.307C244.607 154.321 243.542 153.522 242.227 153.522C240.913 153.522 239.848 154.321 239.848 155.307C239.848 156.292 240.913 157.091 242.227 157.091Z" fill="#1B1E26"/>
<defs>
<linearGradient id="paint0_linear" x1="290.965" y1="16.6621" x2="334.168" y2="16.6621" gradientUnits="userSpaceOnUse">
<stop offset="0.00138476" stop-color="#FB8732"/>
<stop offset="1" stop-color="#F8C332"/>
</linearGradient>
<linearGradient id="paint1_linear" x1="242.584" y1="62.3974" x2="276.154" y2="62.3974" gradientUnits="userSpaceOnUse">
<stop stop-color="#F24F5F"/>
<stop offset="1" stop-color="#A3076C"/>
</linearGradient>
<linearGradient id="paint2_linear" x1="150.656" y1="37.5419" x2="195.835" y2="37.5419" gradientUnits="userSpaceOnUse">
<stop stop-color="#E74E4B"/>
<stop offset="1" stop-color="#FB8133"/>
</linearGradient>
<linearGradient id="paint3_linear" x1="165.324" y1="57.7793" x2="181.167" y2="57.7793" gradientUnits="userSpaceOnUse">
<stop stop-color="#E74E4B"/>
<stop offset="1" stop-color="#FB8133"/>
</linearGradient>
<linearGradient id="paint4_linear" x1="358.673" y1="62.2398" x2="403.852" y2="62.2398" gradientUnits="userSpaceOnUse">
<stop stop-color="#1B40DE"/>
<stop offset="1" stop-color="#2CB4ED"/>
</linearGradient>
<linearGradient id="paint5_linear" x1="373.34" y1="82.4771" x2="389.183" y2="82.4771" gradientUnits="userSpaceOnUse">
<stop stop-color="#1B40DE"/>
<stop offset="1" stop-color="#2CB4ED"/>
</linearGradient>
<linearGradient id="paint6_linear" x1="145.209" y1="238.499" x2="223.956" y2="238.499" gradientUnits="userSpaceOnUse">
<stop stop-color="#E74E4B"/>
<stop offset="1" stop-color="#FB8133"/>
</linearGradient>
<linearGradient id="paint7_linear" x1="253.877" y1="238.499" x2="332.624" y2="238.499" gradientUnits="userSpaceOnUse">
<stop stop-color="#E74E4B"/>
<stop offset="1" stop-color="#FB8133"/>
</linearGradient>
<linearGradient id="paint8_linear" x1="195.145" y1="253.101" x2="283.03" y2="253.101" gradientUnits="userSpaceOnUse">
<stop stop-color="#E74E4B"/>
<stop offset="1" stop-color="#FB8133"/>
</linearGradient>
<linearGradient id="paint9_linear" x1="210.34" y1="206.449" x2="271.155" y2="206.449" gradientUnits="userSpaceOnUse">
<stop stop-color="#E74E4B"/>
<stop offset="1" stop-color="#FB8133"/>
</linearGradient>
<linearGradient id="paint10_linear" x1="86.749" y1="121.373" x2="106.522" y2="121.373" gradientUnits="userSpaceOnUse">
<stop stop-color="#271147"/>
<stop offset="1" stop-color="#553180"/>
</linearGradient>
<linearGradient id="paint11_linear" x1="100.622" y1="108.597" x2="126.2" y2="108.597" gradientUnits="userSpaceOnUse">
<stop stop-color="#271147"/>
<stop offset="1" stop-color="#553180"/>
</linearGradient>
<linearGradient id="paint12_linear" x1="103.833" y1="114.165" x2="124.884" y2="114.165" gradientUnits="userSpaceOnUse">
<stop stop-color="#271147"/>
<stop offset="1" stop-color="#553180"/>
</linearGradient>
<linearGradient id="paint13_linear" x1="92.5082" y1="130.443" x2="149.486" y2="130.443" gradientUnits="userSpaceOnUse">
<stop stop-color="#271147"/>
<stop offset="1" stop-color="#553180"/>
</linearGradient>
<linearGradient id="paint14_linear" x1="115.213" y1="127.487" x2="149.486" y2="127.487" gradientUnits="userSpaceOnUse">
<stop stop-color="#271147"/>
<stop offset="1" stop-color="#553180"/>
</linearGradient>
<linearGradient id="paint15_linear" x1="110.223" y1="104.334" x2="124.921" y2="104.334" gradientUnits="userSpaceOnUse">
<stop stop-color="#271147"/>
<stop offset="1" stop-color="#553180"/>
</linearGradient>
<linearGradient id="paint16_linear" x1="124.095" y1="243.526" x2="128.562" y2="243.526" gradientUnits="userSpaceOnUse">
<stop stop-color="#1B40DE"/>
<stop offset="1" stop-color="#2CB4ED"/>
</linearGradient>
<linearGradient id="paint17_linear" x1="123.202" y1="259.734" x2="135.521" y2="259.734" gradientUnits="userSpaceOnUse">
<stop stop-color="#1B40DE"/>
<stop offset="1" stop-color="#2CB4ED"/>
</linearGradient>
<linearGradient id="paint18_linear" x1="125.938" y1="259.811" x2="133.521" y2="259.811" gradientUnits="userSpaceOnUse">
<stop stop-color="#1B40DE"/>
<stop offset="1" stop-color="#2CB4ED"/>
</linearGradient>
<linearGradient id="paint19_linear" x1="131.463" y1="249.998" x2="135.88" y2="249.998" gradientUnits="userSpaceOnUse">
<stop stop-color="#1B40DE"/>
<stop offset="1" stop-color="#2CB4ED"/>
</linearGradient>
<linearGradient id="paint20_linear" x1="130.1" y1="246.313" x2="132.513" y2="246.313" gradientUnits="userSpaceOnUse">
<stop stop-color="#1B40DE"/>
<stop offset="1" stop-color="#2CB4ED"/>
</linearGradient>
<linearGradient id="paint21_linear" x1="134.115" y1="251.725" x2="143.308" y2="251.725" gradientUnits="userSpaceOnUse">
<stop stop-color="#E74E4B"/>
<stop offset="1" stop-color="#FB8133"/>
</linearGradient>
<linearGradient id="paint22_linear" x1="135.798" y1="251.725" x2="141.625" y2="251.725" gradientUnits="userSpaceOnUse">
<stop stop-color="#E74E4B"/>
<stop offset="1" stop-color="#FB8133"/>
</linearGradient>
<linearGradient id="paint23_linear" x1="136.097" y1="228.941" x2="143.494" y2="228.941" gradientUnits="userSpaceOnUse">
<stop stop-color="#E74E4B"/>
<stop offset="1" stop-color="#FB8133"/>
</linearGradient>
<linearGradient id="paint24_linear" x1="135.852" y1="260.873" x2="157.312" y2="260.873" gradientUnits="userSpaceOnUse">
<stop offset="0.00138476" stop-color="#FB8732"/>
<stop offset="1" stop-color="#F8C332"/>
</linearGradient>
<linearGradient id="paint25_linear" x1="137.383" y1="260.873" x2="155.781" y2="260.873" gradientUnits="userSpaceOnUse">
<stop offset="0.00138476" stop-color="#FB8732"/>
<stop offset="1" stop-color="#F8C332"/>
</linearGradient>
<linearGradient id="paint26_linear" x1="126.507" y1="284.737" x2="148.898" y2="284.737" gradientUnits="userSpaceOnUse">
<stop stop-color="#271147"/>
<stop offset="1" stop-color="#553180"/>
</linearGradient>
<linearGradient id="paint27_linear" x1="126.507" y1="284.737" x2="137.702" y2="284.737" gradientUnits="userSpaceOnUse">
<stop stop-color="#271147"/>
<stop offset="1" stop-color="#553180"/>
</linearGradient>
<linearGradient id="paint28_linear" x1="80.3465" y1="281.863" x2="109.563" y2="281.863" gradientUnits="userSpaceOnUse">
<stop offset="0.00138476" stop-color="#FB8732"/>
<stop offset="1" stop-color="#F8C332"/>
</linearGradient>
<linearGradient id="paint29_linear" x1="83.1355" y1="275.149" x2="86.2946" y2="275.149" gradientUnits="userSpaceOnUse">
<stop stop-color="#E74E4B"/>
<stop offset="1" stop-color="#FB8133"/>
</linearGradient>
<linearGradient id="paint30_linear" x1="95.4164" y1="281.863" x2="109.563" y2="281.863" gradientUnits="userSpaceOnUse">
<stop offset="0.00138476" stop-color="#FB8732"/>
<stop offset="1" stop-color="#F8C332"/>
</linearGradient>
<linearGradient id="paint31_linear" x1="378.949" y1="183.131" x2="444.083" y2="183.131" gradientUnits="userSpaceOnUse">
<stop offset="0.000165344" stop-color="#39DDBF"/>
<stop offset="1" stop-color="#1770AE"/>
</linearGradient>
<linearGradient id="paint32_linear" x1="418.353" y1="209.816" x2="477.213" y2="209.816" gradientUnits="userSpaceOnUse">
<stop stop-color="#82DA3B"/>
<stop offset="1" stop-color="#27A87C"/>
</linearGradient>
<linearGradient id="paint33_linear" x1="406.709" y1="280.979" x2="450.024" y2="280.979" gradientUnits="userSpaceOnUse">
<stop offset="0.00138476" stop-color="#FB8732"/>
<stop offset="1" stop-color="#F8C332"/>
</linearGradient>
<linearGradient id="paint34_linear" x1="401.406" y1="253.258" x2="455.326" y2="253.258" gradientUnits="userSpaceOnUse">
<stop offset="0.00138476" stop-color="#FB8732"/>
<stop offset="1" stop-color="#F8C332"/>
</linearGradient>
<linearGradient id="paint35_linear" x1="406.709" y1="262.204" x2="450.024" y2="262.204" gradientUnits="userSpaceOnUse">
<stop stop-color="#E74E4B"/>
<stop offset="1" stop-color="#FB8133"/>
</linearGradient>
<linearGradient id="paint36_linear" x1="335.158" y1="293.672" x2="412.835" y2="293.672" gradientUnits="userSpaceOnUse">
<stop stop-color="#82DA3B"/>
<stop offset="1" stop-color="#27A87C"/>
</linearGradient>
<linearGradient id="paint37_linear" x1="342.978" y1="293.672" x2="420.655" y2="293.672" gradientUnits="userSpaceOnUse">
<stop stop-color="#82DA3B"/>
<stop offset="1" stop-color="#27A87C"/>
</linearGradient>
<linearGradient id="paint38_linear" x1="339.621" y1="273.301" x2="417.299" y2="273.301" gradientUnits="userSpaceOnUse">
<stop stop-color="#271147"/>
<stop offset="1" stop-color="#553180"/>
</linearGradient>
<linearGradient id="paint39_linear" x1="350.798" y1="241.249" x2="428.474" y2="241.249" gradientUnits="userSpaceOnUse">
<stop stop-color="#82DA3B"/>
<stop offset="1" stop-color="#27A87C"/>
</linearGradient>
<linearGradient id="paint40_linear" x1="342.978" y1="241.249" x2="420.655" y2="241.249" gradientUnits="userSpaceOnUse">
<stop stop-color="#82DA3B"/>
<stop offset="1" stop-color="#27A87C"/>
</linearGradient>
<linearGradient id="paint41_linear" x1="337.243" y1="256.184" x2="422.74" y2="256.184" gradientUnits="userSpaceOnUse">
<stop stop-color="#F24F5F"/>
<stop offset="1" stop-color="#A3076C"/>
</linearGradient>
<linearGradient id="paint42_linear" x1="344.965" y1="256.184" x2="348.191" y2="256.184" gradientUnits="userSpaceOnUse">
<stop offset="0.00138476" stop-color="#FB8732"/>
<stop offset="1" stop-color="#F8C332"/>
</linearGradient>
<linearGradient id="paint43_linear" x1="360.996" y1="256.184" x2="364.221" y2="256.184" gradientUnits="userSpaceOnUse">
<stop offset="0.00138476" stop-color="#FB8732"/>
<stop offset="1" stop-color="#F8C332"/>
</linearGradient>
<linearGradient id="paint44_linear" x1="350.146" y1="256.184" x2="359.236" y2="256.184" gradientUnits="userSpaceOnUse">
<stop offset="0.00138476" stop-color="#FB8732"/>
<stop offset="1" stop-color="#F8C332"/>
</linearGradient>
<linearGradient id="paint45_linear" x1="329.423" y1="207.807" x2="414.92" y2="207.807" gradientUnits="userSpaceOnUse">
<stop stop-color="#F24F5F"/>
<stop offset="1" stop-color="#A3076C"/>
</linearGradient>
<linearGradient id="paint46_linear" x1="403.972" y1="207.807" x2="407.198" y2="207.807" gradientUnits="userSpaceOnUse">
<stop stop-color="#E74E4B"/>
<stop offset="1" stop-color="#FB8133"/>
</linearGradient>
<linearGradient id="paint47_linear" x1="397.069" y1="207.807" x2="402.017" y2="207.807" gradientUnits="userSpaceOnUse">
<stop stop-color="#E74E4B"/>
<stop offset="1" stop-color="#FB8133"/>
</linearGradient>
<linearGradient id="paint48_linear" x1="337.939" y1="223.161" x2="423.436" y2="223.161" gradientUnits="userSpaceOnUse">
<stop stop-color="#271147"/>
<stop offset="1" stop-color="#553180"/>
</linearGradient>
<linearGradient id="paint49_linear" x1="345.661" y1="222.909" x2="348.887" y2="222.909" gradientUnits="userSpaceOnUse">
<stop offset="0.00138476" stop-color="#FB8732"/>
<stop offset="1" stop-color="#F8C332"/>
</linearGradient>
<linearGradient id="paint50_linear" x1="414.606" y1="222.909" x2="417.831" y2="222.909" gradientUnits="userSpaceOnUse">
<stop offset="0.00138476" stop-color="#FB8732"/>
<stop offset="1" stop-color="#F8C332"/>
</linearGradient>
<linearGradient id="paint51_linear" x1="408.806" y1="222.909" x2="412.032" y2="222.909" gradientUnits="userSpaceOnUse">
<stop offset="0.00138476" stop-color="#FB8732"/>
<stop offset="1" stop-color="#F8C332"/>
</linearGradient>
<linearGradient id="paint52_linear" x1="351.901" y1="222.909" x2="364.33" y2="222.909" gradientUnits="userSpaceOnUse">
<stop offset="0.00138476" stop-color="#FB8732"/>
<stop offset="1" stop-color="#F8C332"/>
</linearGradient>
<linearGradient id="paint53_linear" x1="396.173" y1="246.833" x2="400.571" y2="246.833" gradientUnits="userSpaceOnUse">
<stop stop-color="#E74E4B"/>
<stop offset="1" stop-color="#FB8133"/>
</linearGradient>
</defs>
</svg>
